<?xml version="1.0" encoding="utf-8"?>
<!-- Generator: Adobe Illustrator 19.1.0, SVG Export Plug-In . SVG Version: 6.00 Build 0)  -->
<svg version="1.1" xmlns="http://www.w3.org/2000/svg" xmlns:xlink="http://www.w3.org/1999/xlink" x="0px" y="0px"
	 viewBox="0 0 600 360" style="enable-background:new 0 0 600 360;" xml:space="preserve">
<style type="text/css">
	.st0{display:none;}
	.st1{display:inline;fill:#EDEDED;}
	.st2{display:inline;}
	.st3{fill:#3D3536;}
	.st4{fill:#70584B;}
	.st5{font-family:'CenturyGothic';}
	.st6{font-size:15.6206px;}
	.st7{letter-spacing:3;}
	.st8{fill:#99A37A;}
	.st9{clip-path:url(#SVGID_2_);fill:#B5D6AA;}
	.st10{fill:#E8E8E8;}
	.st11{fill:#B5D6AA;}
	.st12{fill:#F0E6B1;}
	.st13{clip-path:url(#SVGID_4_);fill:#939082;}
</style>
<g id="BG" class="st0">
	<rect x="5" y="5" class="st1" width="590" height="350"/>
</g>
<g id="BCBK" class="st0">
	<g id="BCBK_1_" class="st2">
		<g>
			<g>
				<g>
					<path class="st3" d="M150.7,196.4v20c1.8-1.8,3.8-3.2,5.9-4.1c2.1-0.9,4.4-1.4,6.8-1.4c5.3,0,9.7,2,13.4,6
						c3.7,4,5.5,9.1,5.5,15.3c0,6-1.9,11-5.7,15.1c-3.8,4-8.3,6.1-13.5,6.1c-2.3,0-4.5-0.4-6.5-1.2c-2-0.8-4-2.2-6-4v4.3h-10.1
						v-55.9H150.7z M161.4,220.2c-3.2,0-5.8,1.1-7.9,3.3c-2.1,2.2-3.1,5-3.1,8.6c0,3.6,1,6.5,3.1,8.7c2.1,2.2,4.7,3.3,7.9,3.3
						c3.1,0,5.7-1.1,7.8-3.4c2.1-2.3,3.2-5.1,3.2-8.6c0-3.5-1-6.3-3.1-8.5C167.1,221.3,164.5,220.2,161.4,220.2z"/>
					<path class="st3" d="M217.5,212h10.1v40.4h-10.1v-4.3c-2,1.9-4,3.2-6,4s-4.1,1.2-6.5,1.2c-5.2,0-9.7-2-13.5-6.1
						c-3.8-4-5.7-9.1-5.7-15.1c0-6.2,1.8-11.3,5.5-15.3c3.7-4,8.2-6,13.4-6c2.4,0,4.7,0.5,6.8,1.4c2.1,0.9,4.1,2.3,5.9,4.1V212z
						 M206.8,220.2c-3.1,0-5.7,1.1-7.8,3.3c-2.1,2.2-3.1,5.1-3.1,8.5c0,3.5,1.1,6.4,3.2,8.6c2.1,2.3,4.7,3.4,7.8,3.4
						c3.2,0,5.8-1.1,7.9-3.3c2.1-2.2,3.1-5.1,3.1-8.7c0-3.5-1-6.4-3.1-8.6C212.7,221.3,210,220.2,206.8,220.2z"/>
					<path class="st3" d="M233.9,212h8.8v5.1c0.9-2,2.2-3.5,3.7-4.6c1.6-1,3.3-1.6,5.1-1.6c1.3,0,2.7,0.3,4.1,1l-3.1,8.7
						c-1.2-0.6-2.2-0.9-2.9-0.9c-1.6,0-2.9,1-3.9,2.9c-1.1,1.9-1.6,5.7-1.6,11.3l0,2v16.3h-10.1V212z"/>
					<path class="st4" d="M295.4,220.3l-4.1,2.6c-3.6-4.7-8.4-7.1-14.6-7.1c-4.9,0-9,1.6-12.3,4.7c-3.3,3.2-4.9,7-4.9,11.5
						c0,2.9,0.7,5.7,2.2,8.3c1.5,2.6,3.6,4.6,6.2,6c2.6,1.4,5.5,2.1,8.8,2.1c5.9,0,10.8-2.4,14.6-7.1l4.1,2.7
						c-1.9,2.9-4.5,5.2-7.8,6.8c-3.3,1.6-7,2.4-11.1,2.4c-6.4,0-11.7-2-15.9-6.1c-4.2-4-6.3-9-6.3-14.8c0-3.9,1-7.5,3-10.9
						c2-3.3,4.7-6,8.1-7.8c3.4-1.9,7.3-2.8,11.6-2.8c2.7,0,5.3,0.4,7.7,1.2c2.5,0.8,4.6,1.9,6.3,3.2
						C292.7,216.7,294.2,218.3,295.4,220.3z"/>
					<path class="st4" d="M340.5,212v40.4h-5.2v-6.9c-2.2,2.6-4.6,4.6-7.3,6c-2.7,1.3-5.7,2-8.9,2c-5.7,0-10.6-2.1-14.6-6.2
						c-4-4.1-6.1-9.2-6.1-15.1c0-5.8,2-10.8,6.1-14.9c4.1-4.1,9-6.2,14.7-6.2c3.3,0,6.3,0.7,9,2.1c2.7,1.4,5,3.5,7.1,6.3V212H340.5z
						 M319.7,216c-2.9,0-5.6,0.7-8,2.1c-2.4,1.4-4.4,3.4-5.8,6c-1.4,2.6-2.2,5.3-2.2,8.1c0,2.8,0.7,5.5,2.2,8.1
						c1.5,2.6,3.4,4.6,5.9,6c2.5,1.4,5.1,2.2,7.9,2.2c2.8,0,5.5-0.7,8.1-2.1c2.5-1.4,4.5-3.4,5.9-5.8c1.4-2.4,2.1-5.2,2.1-8.2
						c0-4.7-1.5-8.6-4.6-11.7C328,217.5,324.2,216,319.7,216z"/>
					<path class="st4" d="M348.9,212h5.2v7c1.8-2.6,3.7-4.5,5.6-5.6c2.6-1.6,5.4-2.3,8.3-2.3c2,0,3.8,0.4,5.6,1.2
						c1.8,0.8,3.2,1.8,4.3,3.1c1.1,1.3,2.1,3.1,2.9,5.5c1.7-3.2,3.9-5.6,6.5-7.2c2.6-1.6,5.4-2.5,8.4-2.5c2.8,0,5.3,0.7,7.4,2.1
						c2.1,1.4,3.7,3.4,4.8,5.9c1,2.5,1.6,6.3,1.6,11.3v22H404v-22c0-4.3-0.3-7.3-0.9-8.9c-0.6-1.6-1.7-2.9-3.2-3.9
						c-1.5-1-3.3-1.5-5.4-1.5c-2.5,0-4.8,0.7-6.9,2.2c-2.1,1.5-3.6,3.5-4.6,5.9c-1,2.5-1.4,6.6-1.4,12.4v15.8h-5.2v-20.6
						c0-4.9-0.3-8.2-0.9-9.9c-0.6-1.7-1.7-3.1-3.2-4.2c-1.5-1-3.3-1.6-5.4-1.6c-2.4,0-4.7,0.7-6.7,2.2c-2.1,1.4-3.6,3.4-4.6,5.8
						c-1,2.4-1.5,6.2-1.5,11.2v17.1h-5.2V212z"/>
					<path class="st4" d="M417.4,212h5.2v7.4c2-2.8,4.4-4.9,7.1-6.3c2.7-1.4,5.6-2.1,8.9-2.1c5.7,0,10.6,2.1,14.7,6.2
						c4.1,4.1,6.1,9.1,6.1,14.9c0,5.9-2,11-6.1,15.1c-4,4.1-8.9,6.2-14.6,6.2c-3.2,0-6.2-0.7-8.9-2c-2.7-1.3-5.1-3.3-7.3-6v21.7
						h-5.2V212z M438.2,216c-4.5,0-8.3,1.6-11.3,4.7c-3.1,3.1-4.6,7-4.6,11.7c0,3.1,0.7,5.8,2,8.2c1.4,2.4,3.3,4.4,5.9,5.8
						c2.5,1.4,5.2,2.1,8.1,2.1c2.8,0,5.4-0.7,7.8-2.2c2.4-1.4,4.4-3.5,5.9-6c1.5-2.6,2.2-5.3,2.2-8.1c0-2.9-0.7-5.6-2.2-8.1
						c-1.4-2.6-3.4-4.6-5.8-6C443.7,216.7,441.1,216,438.2,216z"/>
				</g>
			</g>
			<g>
				<text transform="matrix(1 0 0 1 243.596 278.2927)" class="st3 st5 st6 st7">Bangkhen</text>
			</g>
			<g>
				<path class="st8" d="M231.7,125.6c7.1,0.7,12.3-8.3,12.4-14.5c0.1-8.3-9.2-12-16-13.5c4.2-3.8,10.6-8.6,16.5-6.5
					c5.9,2,9.3,8.2,12.8,12.9c3.1,4.2,9.1,10.6,15,7c2.1-1.7,0.4-5-1.2-7.8c-1.6-2.8-3.3-5.6-5.4-8c63.6,18.9,0.1,139.4-51,89.5
					c-3.7-3.6-6.9-7.7-9.8-11.9c5.4,3.5,11.8,6.2,18.3,5c5.6-1,11.2-6.5,5.6-11.4c-5-4.5-13.1-4.4-19-7c-7.4-3.3-13.6-6.4-14.6-14.2
					c3.3,1.3,6.2,1.8,7.9,1.6c3-0.4,6.2-1.4,7.9-4.1c3.2-5.1,1.9-12.2-1.4-16.8c-1.5-2.2-3.8-3.9-6.4-4.5c-3.4-0.7-5.6,1.3-8.7,2.1
					c-3,0.8-5.6,1.2-8.7,0.2c-3.5-1.2-5.8-4.4-7.2-7.6c-0.8-1.8-1.2-3.7-1.8-5.5c4.7,3.5,10.9,8.6,17,4.5
					c4.9-3.3,4.9-10.2,10.1-13.5c6.6-4.2,12.4,5,15.2,9.6C222.3,116.4,223.9,124.8,231.7,125.6z"/>
			</g>
			<g>
				<defs>
					<path id="SVGID_1_" d="M192.4,113.8c0,0,24.4,47.6,78,69.2c55,22.2,29.7-91.6,29.7-91.6l-107.7-9.7V113.8z"/>
				</defs>
				<clipPath id="SVGID_2_">
					<use xlink:href="#SVGID_1_"  style="overflow:visible;"/>
				</clipPath>
				<path class="st9" d="M231.7,125.6c7.1,0.7,12.3-8.3,12.4-14.5c0.1-8.3-9.2-12-16-13.5c4.2-3.8,10.6-8.6,16.5-6.5
					c5.9,2,9.3,8.2,12.8,12.9c3.1,4.2,9.1,10.6,15,7c2.1-1.7,0.4-5-1.2-7.8c-1.6-2.8-3.3-5.6-5.4-8c63.6,18.9,0.1,139.4-51,89.5
					c-3.7-3.6-6.9-7.7-9.8-11.9c5.4,3.5,11.8,6.2,18.3,5c5.6-1,11.2-6.5,5.6-11.4c-5-4.5-13.1-4.4-19-7c-7.4-3.3-13.6-6.4-14.6-14.2
					c3.3,1.3,6.2,1.8,7.9,1.6c3-0.4,6.2-1.4,7.9-4.1c3.2-5.1,1.9-12.2-1.4-16.8c-1.5-2.2-3.8-3.9-6.4-4.5c-3.4-0.7-5.6,1.3-8.7,2.1
					c-3,0.8-5.6,1.2-8.7,0.2c-3.5-1.2-5.8-4.4-7.2-7.6c-0.8-1.8-1.2-3.7-1.8-5.5c4.7,3.5,10.9,8.6,17,4.5
					c4.9-3.3,4.9-10.2,10.1-13.5c6.6-4.2,12.4,5,15.2,9.6C222.3,116.4,223.9,124.8,231.7,125.6z"/>
			</g>
			<g>
				<path class="st8" d="M389,130.6c-12.3,0.1-22.8,8.2-26.4,19.9c-3.6,11.7,0.2,24.6,9.5,32.4c9.4,7.9,23.4,9.5,33.7,2.5
					c10.1-6.9,14.8-19.9,11.9-31.7c-3.3-13.4-15.4-22.9-29.2-23.1c-1.2,0-1.2-1-0.6-1.7c0.7-1,2.3-1.3,3.5-1.3
					c13.7,0.2,26.3,8.8,30.6,21.9c4.4,13.2-0.5,27.7-11.5,36.1c-10.9,8.4-26.4,9.8-38.4,2.9c-12.1-7-18.3-21.6-15-35.1
					c3.7-15.2,18.2-25.5,33.6-25.7C394.1,127.6,390.9,130.6,389,130.6z"/>
				<path class="st8" d="M286.8,131.3c-12.1,0.1-23.2,7.3-26.9,19c-3.7,11.7,0.6,24.7,10,32.3c9.5,7.6,23.3,8.9,33.9,2.6
					c10.5-6.4,15.2-19.2,12.2-31C312.6,140.9,300.5,131.5,286.8,131.3c-2.5,0,0.1-4.4,1.8-4.4c13.8,0.2,26.4,8.8,30.7,22.1
					c4.2,13.2-0.6,28-11.3,36.7c-10.8,8.8-26.1,10.5-38.1,3.2c-11.8-7.2-17.6-21.6-14.5-35c3.6-15.2,17.5-26.8,33.2-27
					C291.2,126.9,288.6,131.3,286.8,131.3z"/>
				<path class="st8" d="M370.6,110.6c-17.2,0-34.4,0-51.6,0c-2.4,0-4.8,0-7.2,0c0.4-0.2,0.8-0.4,1.1-0.6c-6.6,15-13.3,30-19.9,45
					c-1,2.2-1.9,4.3-2.9,6.5c-1.2-1-2.4-1.9-3.6-2.9c14.5,0,29,0,43.4,0c0.3,0,0.7-0.1,1,0c0.7,0.3-0.6-0.2-0.6,0.3
					c0-0.2,1-1,1.1-1.2c2.1-2.2,4.1-4.4,6.2-6.6c6.5-6.9,13-13.8,19.5-20.7c4.5-4.8,9-9.6,13.5-14.3c-0.1,0.4-0.2,0.8-0.2,1.1
					c-1.1-2.9-2.3-5.7-3.4-8.6c-0.9-2.3,4-1.1,4.7,0.6c1.1,2.9,2.3,5.7,3.4,8.6c0.2,0.4,0.1,0.8-0.2,1.1
					c-10.4,11.1-20.8,22.1-31.2,33.2c-2.4,2.5-4.7,5-7.1,7.5c-0.9,1-1.7,2.3-3.1,2.5c-2.4,0.3-5.1,0-7.5,0c-4.6,0-9.3,0-13.9,0
					c-7.7,0-15.4,0-23.1,0c-1.2,0-4.4-1.1-3.6-2.9c6.6-15,13.3-30,19.9-45c1-2.2,1.9-4.3,2.9-6.5c0.2-0.4,0.7-0.6,1.1-0.6
					c17.2,0,34.4,0,51.6,0c2.4,0,4.8,0,7.2,0c1.2,0,2.7,0.5,3.3,1.6C372,109.5,371.8,110.6,370.6,110.6z"/>
				<path class="st8" d="M386.8,160.2c-4.3-10.7-8.5-21.5-12.8-32.2c-2.3-5.7-4.5-11.3-6.8-17c-0.9-2.3-1.8-4.6-3-6.6
					c-5-8.1-13-12.6-22.5-12.7c-1.4,0-3.4-0.9-3.9-2.4c-0.4-1.5,0.8-2.3,2.2-2.3c14.5,0.2,27.2,8.7,32.5,22.2
					c4.9,12.3,9.8,24.6,14.7,37c1.9,4.7,3.8,9.5,5.7,14.2C394.1,163.6,387.8,162.7,386.8,160.2L386.8,160.2z"/>
				<path class="st8" d="M329.9,160.8c-7.1-16.7-14.2-33.4-21.3-50.1c-1.3-3.1-2.7-6.3-4-9.4c-0.4-1,4.5-2.4,5.1-1
					c7.3,17,14.6,34.1,21.8,51.1c1.2,2.8,2.4,5.5,3.5,8.3C335.4,160.8,330.5,162.2,329.9,160.8L329.9,160.8z"/>
				<path class="st8" d="M324.5,102.5c-10.7,0-21.5,0-32.2,0c-1.3,0-3.5-0.3-4.2-1.6c-0.7-1.2,0.5-1.8,1.6-1.8c10.7,0,21.5,0,32.2,0
					c1.3,0,3.5,0.3,4.2,1.6C326.8,101.9,325.6,102.5,324.5,102.5L324.5,102.5z"/>
			</g>
		</g>
	</g>
</g>
<g id="BCBK_reverse">
	<g id="BCBK_copy_1_">
		<g>
			<g>
				<g>
					<path class="st10" d="M150.7,196.4v20c1.8-1.8,3.8-3.2,5.9-4.1c2.1-0.9,4.4-1.4,6.8-1.4c5.3,0,9.7,2,13.4,6
						c3.7,4,5.5,9.1,5.5,15.3c0,6-1.9,11-5.7,15.1c-3.8,4-8.3,6.1-13.5,6.1c-2.3,0-4.5-0.4-6.5-1.2c-2-0.8-4-2.2-6-4v4.3h-10.1
						v-55.9H150.7z M161.4,220.2c-3.2,0-5.8,1.1-7.9,3.3c-2.1,2.2-3.1,5-3.1,8.6c0,3.6,1,6.5,3.1,8.7c2.1,2.2,4.7,3.3,7.9,3.3
						c3.1,0,5.7-1.1,7.8-3.4c2.1-2.3,3.2-5.1,3.2-8.6c0-3.5-1-6.3-3.1-8.5C167.1,221.3,164.5,220.2,161.4,220.2z"/>
					<path class="st10" d="M217.5,212h10.1v40.4h-10.1v-4.3c-2,1.9-4,3.2-6,4s-4.1,1.2-6.5,1.2c-5.2,0-9.7-2-13.5-6.1
						c-3.8-4-5.7-9.1-5.7-15.1c0-6.2,1.8-11.3,5.5-15.3c3.7-4,8.2-6,13.4-6c2.4,0,4.7,0.5,6.8,1.4c2.1,0.9,4.1,2.3,5.9,4.1V212z
						 M206.8,220.2c-3.1,0-5.7,1.1-7.8,3.3c-2.1,2.2-3.1,5.1-3.1,8.5c0,3.5,1.1,6.4,3.2,8.6c2.1,2.3,4.7,3.4,7.8,3.4
						c3.2,0,5.8-1.1,7.9-3.3c2.1-2.2,3.1-5.1,3.1-8.7c0-3.5-1-6.4-3.1-8.6C212.7,221.3,210,220.2,206.8,220.2z"/>
					<path class="st10" d="M233.9,212h8.8v5.1c0.9-2,2.2-3.5,3.7-4.6c1.6-1,3.3-1.6,5.1-1.6c1.3,0,2.7,0.3,4.1,1l-3.1,8.7
						c-1.2-0.6-2.2-0.9-2.9-0.9c-1.6,0-2.9,1-3.9,2.9c-1.1,1.9-1.6,5.7-1.6,11.3l0,2v16.3h-10.1V212z"/>
					<path class="st11" d="M295.4,220.3l-4.1,2.6c-3.6-4.7-8.4-7.1-14.6-7.1c-4.9,0-9,1.6-12.3,4.7c-3.3,3.2-4.9,7-4.9,11.5
						c0,2.9,0.7,5.7,2.2,8.3c1.5,2.6,3.6,4.6,6.2,6c2.6,1.4,5.5,2.1,8.8,2.1c5.9,0,10.8-2.4,14.6-7.1l4.1,2.7
						c-1.9,2.9-4.5,5.2-7.8,6.8c-3.3,1.6-7,2.4-11.1,2.4c-6.4,0-11.7-2-15.9-6.1c-4.2-4-6.3-9-6.3-14.8c0-3.9,1-7.5,3-10.9
						c2-3.3,4.7-6,8.1-7.8c3.4-1.9,7.3-2.8,11.6-2.8c2.7,0,5.3,0.4,7.7,1.2c2.5,0.8,4.6,1.9,6.3,3.2
						C292.7,216.7,294.2,218.3,295.4,220.3z"/>
					<path class="st11" d="M340.5,212v40.4h-5.2v-6.9c-2.2,2.6-4.6,4.6-7.3,6c-2.7,1.3-5.7,2-8.9,2c-5.7,0-10.6-2.1-14.6-6.2
						c-4-4.1-6.1-9.2-6.1-15.1c0-5.8,2-10.8,6.1-14.9c4.1-4.1,9-6.2,14.7-6.2c3.3,0,6.3,0.7,9,2.1c2.7,1.4,5,3.5,7.1,6.3V212H340.5z
						 M319.7,216c-2.9,0-5.6,0.7-8,2.1c-2.4,1.4-4.4,3.4-5.8,6c-1.4,2.6-2.2,5.3-2.2,8.1c0,2.8,0.7,5.5,2.2,8.1
						c1.5,2.6,3.4,4.6,5.9,6c2.5,1.4,5.1,2.2,7.9,2.2c2.8,0,5.5-0.7,8.1-2.1c2.5-1.4,4.5-3.4,5.9-5.8c1.4-2.4,2.1-5.2,2.1-8.2
						c0-4.7-1.5-8.6-4.6-11.7C328,217.5,324.2,216,319.7,216z"/>
					<path class="st11" d="M348.9,212h5.2v7c1.8-2.6,3.7-4.5,5.6-5.6c2.6-1.6,5.4-2.3,8.3-2.3c2,0,3.8,0.4,5.6,1.2
						c1.8,0.8,3.2,1.8,4.3,3.1c1.1,1.3,2.1,3.1,2.9,5.5c1.7-3.2,3.9-5.6,6.5-7.2c2.6-1.6,5.4-2.5,8.4-2.5c2.8,0,5.3,0.7,7.4,2.1
						c2.1,1.4,3.7,3.4,4.8,5.9c1,2.5,1.6,6.3,1.6,11.3v22H404v-22c0-4.3-0.3-7.3-0.9-8.9c-0.6-1.6-1.7-2.9-3.2-3.9
						c-1.5-1-3.3-1.5-5.4-1.5c-2.5,0-4.8,0.7-6.9,2.2c-2.1,1.5-3.6,3.5-4.6,5.9c-1,2.5-1.4,6.6-1.4,12.4v15.8h-5.2v-20.6
						c0-4.9-0.3-8.2-0.9-9.9c-0.6-1.7-1.7-3.1-3.2-4.2c-1.5-1-3.3-1.6-5.4-1.6c-2.4,0-4.7,0.7-6.7,2.2c-2.1,1.4-3.6,3.4-4.6,5.8
						c-1,2.4-1.5,6.2-1.5,11.2v17.1h-5.2V212z"/>
					<path class="st11" d="M417.4,212h5.2v7.4c2-2.8,4.4-4.9,7.1-6.3c2.7-1.4,5.6-2.1,8.9-2.1c5.7,0,10.6,2.1,14.7,6.2
						c4.1,4.1,6.1,9.1,6.1,14.9c0,5.9-2,11-6.1,15.1c-4,4.1-8.9,6.2-14.6,6.2c-3.2,0-6.2-0.7-8.9-2c-2.7-1.3-5.1-3.3-7.3-6v21.7
						h-5.2V212z M438.2,216c-4.5,0-8.3,1.6-11.3,4.7c-3.1,3.1-4.6,7-4.6,11.7c0,3.1,0.7,5.8,2,8.2c1.4,2.4,3.3,4.4,5.9,5.8
						c2.5,1.4,5.2,2.1,8.1,2.1c2.8,0,5.4-0.7,7.8-2.2c2.4-1.4,4.4-3.5,5.9-6c1.5-2.6,2.2-5.3,2.2-8.1c0-2.9-0.7-5.6-2.2-8.1
						c-1.4-2.6-3.4-4.6-5.8-6C443.7,216.7,441.1,216,438.2,216z"/>
				</g>
			</g>
			<g>
				<text transform="matrix(1 0 0 1 243.596 278.2927)" class="st8 st5 st6 st7">Bangkhen</text>
			</g>
			<g>
				<path class="st12" d="M231.7,125.6c7.1,0.7,12.3-8.3,12.4-14.5c0.1-8.3-9.2-12-16-13.5c4.2-3.8,10.6-8.6,16.5-6.5
					c5.9,2,9.3,8.2,12.8,12.9c3.1,4.2,9.1,10.6,15,7c2.1-1.7,0.4-5-1.2-7.8c-1.6-2.8-3.3-5.6-5.4-8c63.6,18.9,0.1,139.4-51,89.5
					c-3.7-3.6-6.9-7.7-9.8-11.9c5.4,3.5,11.8,6.2,18.3,5c5.6-1,11.2-6.5,5.6-11.4c-5-4.5-13.1-4.4-19-7c-7.4-3.3-13.6-6.4-14.6-14.2
					c3.3,1.3,6.2,1.8,7.9,1.6c3-0.4,6.2-1.4,7.9-4.1c3.2-5.1,1.9-12.2-1.4-16.8c-1.5-2.2-3.8-3.9-6.4-4.5c-3.4-0.7-5.6,1.3-8.7,2.1
					c-3,0.8-5.6,1.2-8.7,0.2c-3.5-1.2-5.8-4.4-7.2-7.6c-0.8-1.8-1.2-3.7-1.8-5.5c4.7,3.5,10.9,8.6,17,4.5
					c4.9-3.3,4.9-10.2,10.1-13.5c6.6-4.2,12.4,5,15.2,9.6C222.3,116.4,223.9,124.8,231.7,125.6z"/>
			</g>
			<g>
				<defs>
					<path id="SVGID_3_" d="M192.4,113.8c0,0,24.4,47.6,78,69.2c55,22.2,29.7-91.6,29.7-91.6l-107.7-9.7V113.8z"/>
				</defs>
				<clipPath id="SVGID_4_">
					<use xlink:href="#SVGID_3_"  style="overflow:visible;"/>
				</clipPath>
				<path class="st13" d="M231.7,125.6c7.1,0.7,12.3-8.3,12.4-14.5c0.1-8.3-9.2-12-16-13.5c4.2-3.8,10.6-8.6,16.5-6.5
					c5.9,2,9.3,8.2,12.8,12.9c3.1,4.2,9.1,10.6,15,7c2.1-1.7,0.4-5-1.2-7.8c-1.6-2.8-3.3-5.6-5.4-8c63.6,18.9,0.1,139.4-51,89.5
					c-3.7-3.6-6.9-7.7-9.8-11.9c5.4,3.5,11.8,6.2,18.3,5c5.6-1,11.2-6.5,5.6-11.4c-5-4.5-13.1-4.4-19-7c-7.4-3.3-13.6-6.4-14.6-14.2
					c3.3,1.3,6.2,1.8,7.9,1.6c3-0.4,6.2-1.4,7.9-4.1c3.2-5.1,1.9-12.2-1.4-16.8c-1.5-2.2-3.8-3.9-6.4-4.5c-3.4-0.7-5.6,1.3-8.7,2.1
					c-3,0.8-5.6,1.2-8.7,0.2c-3.5-1.2-5.8-4.4-7.2-7.6c-0.8-1.8-1.2-3.7-1.8-5.5c4.7,3.5,10.9,8.6,17,4.5
					c4.9-3.3,4.9-10.2,10.1-13.5c6.6-4.2,12.4,5,15.2,9.6C222.3,116.4,223.9,124.8,231.7,125.6z"/>
			</g>
			<g>
				<path class="st12" d="M389,130.6c-12.3,0.1-22.8,8.2-26.4,19.9c-3.6,11.7,0.2,24.6,9.5,32.4c9.4,7.9,23.4,9.5,33.7,2.5
					c10.1-6.9,14.8-19.9,11.9-31.7c-3.3-13.4-15.4-22.9-29.2-23.1c-1.2,0-1.2-1-0.6-1.7c0.7-1,2.3-1.3,3.5-1.3
					c13.7,0.2,26.3,8.8,30.6,21.9c4.4,13.2-0.5,27.7-11.5,36.1c-10.9,8.4-26.4,9.8-38.4,2.9c-12.1-7-18.3-21.6-15-35.1
					c3.7-15.2,18.2-25.5,33.6-25.7C394.1,127.6,390.9,130.6,389,130.6z"/>
				<path class="st12" d="M286.8,131.3c-12.1,0.1-23.2,7.3-26.9,19c-3.7,11.7,0.6,24.7,10,32.3c9.5,7.6,23.3,8.9,33.9,2.6
					c10.5-6.4,15.2-19.2,12.2-31C312.6,140.9,300.5,131.5,286.8,131.3c-2.5,0,0.1-4.4,1.8-4.4c13.8,0.2,26.4,8.8,30.7,22.1
					c4.2,13.2-0.6,28-11.3,36.7c-10.8,8.8-26.1,10.5-38.1,3.2c-11.8-7.2-17.6-21.6-14.5-35c3.6-15.2,17.5-26.8,33.2-27
					C291.2,126.9,288.6,131.3,286.8,131.3z"/>
				<path class="st12" d="M370.6,110.6c-17.2,0-34.4,0-51.6,0c-2.4,0-4.8,0-7.2,0c0.4-0.2,0.8-0.4,1.1-0.6c-6.6,15-13.3,30-19.9,45
					c-1,2.2-1.9,4.3-2.9,6.5c-1.2-1-2.4-1.9-3.6-2.9c14.5,0,29,0,43.4,0c0.3,0,0.7-0.1,1,0c0.7,0.3-0.6-0.2-0.6,0.3
					c0-0.2,1-1,1.1-1.2c2.1-2.2,4.1-4.4,6.2-6.6c6.5-6.9,13-13.8,19.5-20.7c4.5-4.8,9-9.6,13.5-14.3c-0.1,0.4-0.2,0.8-0.2,1.1
					c-1.1-2.9-2.3-5.7-3.4-8.6c-0.9-2.3,4-1.1,4.7,0.6c1.1,2.9,2.3,5.7,3.4,8.6c0.2,0.4,0.1,0.8-0.2,1.1
					c-10.4,11.1-20.8,22.1-31.2,33.2c-2.4,2.5-4.7,5-7.1,7.5c-0.9,1-1.7,2.3-3.1,2.5c-2.4,0.3-5.1,0-7.5,0c-4.6,0-9.3,0-13.9,0
					c-7.7,0-15.4,0-23.1,0c-1.2,0-4.4-1.1-3.6-2.9c6.6-15,13.3-30,19.9-45c1-2.2,1.9-4.3,2.9-6.5c0.2-0.4,0.7-0.6,1.1-0.6
					c17.2,0,34.4,0,51.6,0c2.4,0,4.8,0,7.2,0c1.2,0,2.7,0.5,3.3,1.6C372,109.5,371.8,110.6,370.6,110.6z"/>
				<path class="st12" d="M386.8,160.2c-4.3-10.7-8.5-21.5-12.8-32.2c-2.3-5.7-4.5-11.3-6.8-17c-0.9-2.3-1.8-4.6-3-6.6
					c-5-8.1-13-12.6-22.5-12.7c-1.4,0-3.4-0.9-3.9-2.4c-0.4-1.5,0.8-2.3,2.2-2.3c14.5,0.2,27.2,8.7,32.5,22.2
					c4.9,12.3,9.8,24.6,14.7,37c1.9,4.7,3.8,9.5,5.7,14.2C394.1,163.6,387.8,162.7,386.8,160.2L386.8,160.2z"/>
				<path class="st12" d="M329.9,160.8c-7.1-16.7-14.2-33.4-21.3-50.1c-1.3-3.1-2.7-6.3-4-9.4c-0.4-1,4.5-2.4,5.1-1
					c7.3,17,14.6,34.1,21.8,51.1c1.2,2.8,2.4,5.5,3.5,8.3C335.4,160.8,330.5,162.2,329.9,160.8L329.9,160.8z"/>
				<path class="st12" d="M324.5,102.5c-10.7,0-21.5,0-32.2,0c-1.3,0-3.5-0.3-4.2-1.6c-0.7-1.2,0.5-1.8,1.6-1.8
					c10.7,0,21.5,0,32.2,0c1.3,0,3.5,0.3,4.2,1.6C326.8,101.9,325.6,102.5,324.5,102.5L324.5,102.5z"/>
			</g>
		</g>
	</g>
</g>
</svg>
