<?xml version="1.0" encoding="utf-8"?>
<!-- Generator: Adobe Illustrator 19.1.0, SVG Export Plug-In . SVG Version: 6.00 Build 0)  -->
<svg version="1.1" id="Layer_1" xmlns="http://www.w3.org/2000/svg" xmlns:xlink="http://www.w3.org/1999/xlink" x="0px" y="0px"
	 viewBox="-149 -100 900 600" style="enable-background:new -149 -100 900 600;" xml:space="preserve">
<style type="text/css">
	.st0{fill:url(#SVGID_1_);}
	.st1{fill:url(#SVGID_2_);}
	.st2{fill:url(#SVGID_3_);}
	.st3{fill:url(#SVGID_4_);}
	.st4{fill:url(#SVGID_5_);}
	.st5{display:none;fill:url(#SVGID_6_);}
</style>
<g id="Layer_1_1_">
	<g>
		<g>
			<radialGradient id="SVGID_1_" cx="-3.9167" cy="-158.9607" r="579.0958" gradientUnits="userSpaceOnUse">
				<stop  offset="0" style="stop-color:#FFCE4E"/>
				<stop  offset="1" style="stop-color:#F5C337"/>
			</radialGradient>
			<path class="st0" d="M185.2,162.4L74.1,347h56.1c13.3,0,29.8-9.3,36.6-20.7l47.3-78.6c5.6-11.5,5.4-28.3-1-38.9L185.2,162.4z"/>
			<radialGradient id="SVGID_2_" cx="-3.9057" cy="-158.9439" r="579.0709" gradientUnits="userSpaceOnUse">
				<stop  offset="0" style="stop-color:#0DA960"/>
				<stop  offset="1" style="stop-color:#05924B"/>
			</radialGradient>
			<path class="st1" d="M134.4,78.4c6.8,11.4,6.8,30.1,0,41.5L9.6,328.5C4.8,338.8,9.8,347,22.2,347h51.9l111.1-184.5L134.4,78.4z"
				/>
			<radialGradient id="SVGID_3_" cx="-3.914" cy="-158.9518" r="579.0724" gradientUnits="userSpaceOnUse">
				<stop  offset="0" style="stop-color:#577EC0"/>
				<stop  offset="1" style="stop-color:#557EBF"/>
			</radialGradient>
			<path class="st2" d="M22.2-148.8c-13.3,0-18.6,9.4-11.8,20.7l202.7,336.7c6.4,10.6,6.6,27.4,1,38.9l49.3-82L74.1-148.8H22.2z"/>
			<radialGradient id="SVGID_4_" cx="-3.9012" cy="-158.9522" r="579.064" gradientUnits="userSpaceOnUse">
				<stop  offset="0" style="stop-color:#E04B3F"/>
				<stop  offset="1" style="stop-color:#CD382D"/>
			</radialGradient>
			<path class="st3" d="M290.8,78.4L166.8-128c-6.9-11.4-23.3-20.7-36.6-20.7H74.1l189.2,314.4l27.4-45.7
				C297.6,108.4,297.6,89.8,290.8,78.4z"/>
			<linearGradient id="SVGID_5_" gradientUnits="userSpaceOnUse" x1="243.1676" y1="162.95" x2="103.662" y2="162.95">
				<stop  offset="0" style="stop-color:#231F20;stop-opacity:0.2"/>
				<stop  offset="1" style="stop-color:#F2F2F2;stop-opacity:0.25"/>
			</linearGradient>
			<path class="st4" d="M213.1,208.6L134.4,78.3c6.8,11.4,6.8,30.1,0,41.5L106.7,166l107.4,81.6C219.6,236,219.5,219.3,213.1,208.6z
				"/>
		</g>
		<radialGradient id="SVGID_6_" cx="151.6616" cy="99.15" r="202.7693" gradientUnits="userSpaceOnUse">
			<stop  offset="0" style="stop-color:#FFFFFF;stop-opacity:0.1"/>
			<stop  offset="8.962709e-02" style="stop-color:#FFFFFF;stop-opacity:9.103730e-02"/>
			<stop  offset="1" style="stop-color:#FFFFFF;stop-opacity:0"/>
		</radialGradient>
		<path class="st5" d="M290.8,78.4L166.8-128c-6.9-11.4-23.3-20.7-36.6-20.7H74.1H22.2c-13.3,0-18.6,9.4-11.8,20.7l124,206.4
			c6.8,11.4,6.8,30.1,0,41.5L9.6,328.5C4.8,338.8,9.8,347,22.2,347h51.9h56.1c13.3,0,29.8-9.3,36.6-20.7l96.5-160.6l27.4-45.7
			C297.6,108.4,297.6,89.8,290.8,78.4z"/>
	</g>
</g>
</svg>
