<?xml version="1.0" encoding="utf-8"?>
<!-- Generator: Adobe Illustrator 19.1.0, SVG Export Plug-In . SVG Version: 6.00 Build 0)  -->
<svg version="1.1" id="Layer_1" xmlns="http://www.w3.org/2000/svg" xmlns:xlink="http://www.w3.org/1999/xlink" x="0px" y="0px"
	 viewBox="0 0 900 600" style="enable-background:new 0 0 900 600;" xml:space="preserve">
<style type="text/css">
	.st0{fill:#38484D;}
	.st1{fill:#38494E;}
</style>
<g>
	<g>
		<g>
			<g>
				<path class="st0" d="M475.8,176.4c0,0-0.1-0.1-0.1-0.1c0,0,0,0.1,0,0.1L475.8,176.4z"/>
				<g>
					<polygon class="st0" points="428.7,176.8 428.7,176.7 428.7,176.7 					"/>
					<path class="st0" d="M712.8,277.2C712.8,277.2,712.8,277.1,712.8,277.2l-11.2-6l-0.8-0.4c-0.5-0.2-1.1-0.3-1.7-0.3
						c-1.5,0-2.8,0.8-3.6,1.9c-0.1,0-0.1,0.1-0.1,0.1c-5.7,8.3-12.9,12.8-22.1,13.7c-5,0.5-10.6-0.1-16.5-1.9l-2.4-0.7l1.7-1.8
						c17.1-17.5,25.7-44.1,25.7-79.2c0-27.7-5.4-50.3-15.9-67.1c-16.3-25.9-45.6-39-87.3-39c-51.2,0-83.2,18.3-97,55.6
						c-9-4.7-20.6-7.1-33.2-6.2c0,0,0,0,0,0c-0.1,0-0.3,0-0.4,0c0,0,0,0,0,0c-1,0.1-2,0.2-3,0.3c-0.3,0-0.7,0.1-1,0.1
						c-1,0.1-2.1,0.3-3.1,0.5c-0.3,0.1-0.6,0.1-0.9,0.2c-0.9,0.2-1.9,0.4-2.8,0.6c-0.2,0.1-0.4,0.1-0.7,0.2c-1,0.2-1.9,0.5-2.8,0.8
						c-0.3,0.1-0.6,0.2-0.9,0.2c-1,0.3-1.9,0.6-2.8,0.9c-0.2,0.1-0.5,0.2-0.7,0.3c-0.9,0.3-1.8,0.7-2.7,1.1c-0.1,0-0.2,0.1-0.3,0.1
						c-0.4,0.2-0.8,0.4-1.2,0.6c-0.3-1-0.6-2.1-1-3.1l-0.3-0.7c-0.7-1.6-1.3-3.2-2.1-4.9c-15.3-30.9-46-46.5-91.4-46.5
						c-70.6,0-104.9,34.7-104.9,106.2c0,4.1,0.1,8.2,0.4,12.2c0,0.6,0.1,1.2,0.2,1.9c0.1,1.4,0.3,2.7,0.4,4
						c1.3,11.2,4.6,28.8,12.8,43.9c-1.6,1.9-3.1,3.9-4.8,5.8c-5.8,6.8-12.5,10.9-18.4,11.1c-0.3,0-0.6,0-0.9,0
						c-5.8,0-11.5-3.2-14.9-8.2c0,0,0,0,0,0c0,0,0,0,0,0c-0.1-0.2-0.2-0.4-0.4-0.5c0,0,0,0,0,0h0c-0.8-0.9-2-1.5-3.2-1.5
						c-0.7,0-1.4,0.2-2,0.5c0,0,0,0,0,0l-10,5.2l-0.9,0.4c-1.7,1.1-2.9,3-2.9,5.2c0,1,0.3,2,0.7,2.9c0.2,0.3,0.3,0.5,0.5,0.8
						c1.5,2.3,3.5,4.8,5.8,6.9l0.9,0.7c7.9,7.2,17.8,11.1,28,10.7c12-0.4,24.1-7.1,34-18.8c0.9-1,1.7-2,2.5-3
						c0.2,0.2,0.3,0.4,0.5,0.5c3.7,3.5,7.6,6.6,11.7,9.1c16.6,10.4,38.4,15.7,64.9,15.7c24.3,0,45.9-5.4,62.4-15.7
						c15.4-9.5,26.7-24.6,32.8-43.5c1.5-5.2,4.8-17.8,4.4-31.7c0-0.3,0-0.6,0-0.9c-0.2-2.3-1.7-4.2-3.8-5c-0.3-0.1-0.6-0.2-0.9-0.3
						c-2.7-0.8-6.5-1.8-6.5-1.8c-22.9-5.7-54.3-6.4-68.2-6.4c-1.7,0-3,0-3.9,0c-19.9,1.1-37,4.9-52.1,11.7
						c-12.4,5.6-23.3,13.4-34.6,24.7l-1.2,1.2c-0.5,0.6-1.1,1.1-1.6,1.6c-5.5-16-5.6-33.1-5.6-33.1l0,0c-0.1-2.6-0.2-5.1-0.2-7.5
						c0-57.1,26.6-86.1,79-86.1c3.3,0,6.4,0.3,9.5,0.5l2,0.2c1.9,0.2,3.8,0.4,5.6,0.7c0.4,0.1,0.7,0.1,1.1,0.2l0.8,0.2
						c29.5,5.8,42.8,24.9,48.8,40.3l0,0c0,0.1,0,0.1,0,0.2c2.4,6.3,3.7,12,4.3,15.9c0,0,0,0,0,0c0.1,0.6,0.2,1.1,0.5,1.6
						c0.7,1.4,2.1,2.3,3.8,2.3h0.2h18.8h0.2c1.1,0,2.1-0.5,2.9-1.2c0,0,0,0,0,0c0,0,0,0,0,0l0,0c0.1,0,0.1,0,0.1,0
						c0.1-0.1,0.2-0.2,0.4-0.3l0.1-0.1l0.1-0.1c0.4-0.3,0.7-0.6,1.1-0.8l0.3-0.2c0.3-0.2,0.7-0.4,1.2-0.8c0.1,0,0.1-0.1,0.2-0.1
						l0.1-0.1c0.4-0.2,0.8-0.5,1.3-0.7c0.2-0.1,0.4-0.2,0.5-0.3c0.6-0.3,1.1-0.5,1.5-0.7l0.1-0.1l0.1-0.1c0.4-0.2,1-0.4,1.6-0.6
						l0.4-0.2l0.2-0.1c0.6-0.2,1.2-0.4,1.7-0.6c0.1,0,0.1,0,0.2-0.1l0.3-0.1c0.7-0.2,1.4-0.4,1.9-0.5l0.1,0l0.3-0.1
						c0.5-0.1,1.1-0.3,1.8-0.4l0.4-0.1l0.1,0l0.1,0c0.7-0.1,1.4-0.2,2-0.3l0.1,0l0.3,0l0.4-0.1c0.6-0.1,1.3-0.1,2-0.2
						c0.2,0,0.4,0,0.6-0.1c12.8-0.8,22,3.4,25.2,7.2c0,0,0.1,0.1,0.1,0.1l-0.1,0c-1.1,7.3-1.6,15-1.7,23.3c0,1,0,1.9,0,2.9
						c0,70,35.3,105.5,104.8,105.5c20.6,0,38.4-3.2,52.9-9.6l0.7-0.3l0.6,0.3c12.7,6.7,25,10.1,36.8,10.1c1.8,0,3.7-0.1,5.9-0.3
						c6.5-0.7,16.2-3,25.6-10.1l1.1-0.8c1-0.8,2-1.8,3-2.7l1.8-1.6v0l0.1-0.2c0.6-0.6,1.2-1.2,1.8-1.9l0.3-0.3
						c0.4-0.4,0.8-0.9,1.2-1.3c1-1.2,1.8-2.3,2.6-3.4c0.5-0.7,1-1.5,1.5-2.2c0.1-0.1,0.1-0.2,0.2-0.3c0.4-0.7,0.7-1.5,0.7-2.3
						C715.5,279.4,714.4,277.8,712.8,277.2z M270.3,262.2c8.3-9.1,18.8-19.4,33.7-26.1c15-6.8,32.6-10.1,53.9-10.1
						c4.8,0,9.9,0.2,15.1,0.5l5.4,0.3c8.1,0.5,15.6,1,23.5,2.3c0,0.1,0,0.2,0,0.3c-0.2,2.9-2,23.3-15,38.3c-0.5,0.6-1,1.1-1.6,1.7
						c-0.5,0.5-0.9,1-1.4,1.5c-1.4,1.3-2.6,2.5-3.6,3.3c-12.5,9.9-29.4,14.9-50,14.9c-27.9,0-48.5-8.4-61.7-25
						C269.3,263.4,269.9,262.7,270.3,262.2z M429.3,176.1C429.3,176.1,429.3,176.1,429.3,176.1C429.3,176.1,429.3,176.1,429.3,176.1
						z M429.7,175.4C429.7,175.3,429.8,175.3,429.7,175.4C429.8,175.3,429.7,175.3,429.7,175.4z M430,174.6c0,0,0-0.1,0-0.1
						C430,174.5,430,174.5,430,174.6z M608.7,284.6c-9,2.9-19.1,4.3-30.1,4.3c-30.2,0-52.1-10-64.9-29.7l-0.1,0l-0.6-0.9
						c-1.1-1.7-2.1-3.5-3.1-5.7c-0.1-0.2-0.3-0.5-0.4-0.7c-0.2-0.3-0.4-0.7-0.6-1.1l-0.7-1.4l0.2-0.1c-0.5-1.2-0.9-2.3-1.3-3.5
						l-0.6-1.5l1.6-0.5c14.4-3.9,30.2-4.3,44.8-1.3c2,0.4,3.9,0.8,5.8,1.4l0.7,0.2c14.1,4.2,27.6,13.3,37.7,25.6
						c3.6,4.3,7.7,8.5,12.2,12.6l1.9,1.8L608.7,284.6z M632.7,270.9l-0.9,0.9l-1-0.8c-6.2-4.6-11.8-9.9-16.6-15.7
						c-10.3-12.5-23.3-22.4-37.5-28.7c-11.7-5.6-25.7-8.4-41.8-8.4c-10.2,0-21.1,1.1-32.2,3.4l-1.6,0.3l-0.4-3.7
						c-0.2-1.5-0.4-3.1-0.5-4.7c-0.1-1.1-0.1-1.7-0.1-1.7l0-0.7l0.1-0.1c-0.2-2.9-0.3-5.9-0.3-9.2c0-0.7,0-1.4,0-2.1
						c0.1-7.2,0.6-13.9,1.5-20.1c6.4-42.3,32.3-63.7,77.3-63.7c51.3,0,77.3,28.9,77.3,86C656,233.2,648.1,256.5,632.7,270.9z"/>
				</g>
			</g>
		</g>
	</g>
	<g>
		<path class="st1" d="M505.7,465.6l0-4.3c-0.1-0.6-0.5-1.1-1.1-1.1l-0.1,0l-0.1,0h-46.1l48.4-63.8c0.1-0.2,0.2-0.5,0.2-0.7V390
			c0-0.7-0.6-1.3-1.3-1.3h-55.1c-0.7,0-1.3,0.6-1.3,1.3v4.3c0,0.7,0.5,1.2,1.2,1.3l0,0l0.1,0h47.7l-1,1.2l-48.9,62.5l0,0.1
			c-0.2,0.2-0.2,0.5-0.2,0.7v5.6c0,0.7,0.6,1.3,1.3,1.3h55.1c0.7,0,1.2-0.5,1.3-1.1l0.4-0.1l-0.4-0.1L505.7,465.6z"/>
		<path class="st1" d="M523.6,467h55.1c0.7,0,1.2-0.5,1.3-1.2l0-0.1c0,0,0-0.1,0-0.1l0-4.2c0-0.1,0-0.1,0-0.1
			c-0.1-0.6-0.5-1.1-1.1-1.1l-0.1,0l-0.1,0h-46.1l0.9-1.2l47.4-62.6c0.1-0.2,0.2-0.4,0.2-0.7V390c0-0.7-0.6-1.3-1.3-1.3h-55.1
			c-0.7,0-1.2,0.5-1.3,1.2v4.3c0,0.7,0.5,1.3,1.2,1.3l0,0l0.1,0h47.7l-49.9,63.8c-0.1,0.2-0.2,0.4-0.2,0.6l-0.4,0.1h0.4v5.5
			l-0.4,0.1l0.4,0C522.3,466.5,522.9,467,523.6,467z"/>
		<path class="st1" d="M349.5,460.4l-40.5,0v-70.1c0-0.8-0.6-1.3-1.3-1.3h-5.9c-0.7,0-1.3,0.6-1.3,1.3v75.3c0,0.7,0.6,1.3,1.3,1.3
			h47.6c0.7,0,1.3-0.6,1.3-1.3v-3.9C350.7,460.9,350.2,460.4,349.5,460.4z"/>
		<path class="st1" d="M404.8,389.5c-0.2-0.5-0.7-0.8-1.2-0.8h-8.8c-0.5,0-0.9,0.3-1.1,0.7l-0.1,0.3l-32.1,75.6
			c-0.1,0.1-0.1,0.3-0.1,0.5c0,0.7,0.6,1.3,1.3,1.3h6.3c0.5,0,1-0.3,1.2-0.8l28.7-70.1l16,38.9l-21.8,0c-0.5,0-0.9,0.3-1.1,0.8l0,0
			c0,0.1-0.1,0.3-0.1,0.3l-1.6,4.6c0,0.1-0.1,0.2-0.1,0.3c0,0.5,0.4,0.8,0.8,0.9h26.6l0.1,0.2l9.8,23.7h0l0.1,0.3
			c0.2,0.5,0.6,0.9,1.2,0.9h7c0.7,0,1.3-0.6,1.3-1.3c0-0.2,0-0.3-0.1-0.5L404.8,389.5z"/>
		<path class="st1" d="M608,389h-5.9c-0.7,0-1.3,0.6-1.3,1.3v75.3c0,0.7,0.6,1.3,1.3,1.3h5.9c0.7,0,1.3-0.6,1.3-1.3v-75.3
			C609.3,389.5,608.7,389,608,389z"/>
		<path class="st1" d="M271.2,410.8l0.2,0.6c0.9,2.4,1.4,4.6,1.6,6h0c0,0,0,0.1,0,0.1l0,0.1c0.1,0.6,0.6,1,1.2,1h7.2
			c0.7,0,1.3-0.6,1.3-1.3l0-0.3c-0.4-2.5-0.9-4.7-1.5-6.8l0-0.1c-0.1-0.2-0.2-0.5-0.2-0.7c-0.1-0.4-0.3-0.9-0.4-1.3l-0.1-0.3
			c-0.2-0.6-0.5-1.2-0.8-1.8c-5.7-11.5-17.2-17.4-34.2-17.4c-26.4,0-39.3,13-39.3,39.8c0,1.5,0.1,3,0.1,4.6l0.1,0.7
			c0,0.3,0.1,0.6,0.1,0.9l0.1,0.6c0.5,4.4,1.7,10.9,4.8,16.5l0.1,0.2l-0.2,0.2c-0.6,0.7-1.2,1.5-1.8,2.2c-2.3,2.7-4.9,4.2-7.2,4.3
			c-0.1,0-0.2,0-0.3,0c-1.9,0-3.9-0.9-5.3-2.4v0.3l-0.7-1.2c0-0.1-0.1-0.1-0.1-0.1l0,0c-0.4-0.4-1-0.5-1.5-0.3l-0.6,0.3v0l-3.5,1.8
			c-0.5,0.3-0.9,1-0.9,1.6c0,0.3,0.1,0.6,0.2,0.9l0.1,0.2c0.7,1.1,1.4,1.9,2.2,2.6l0.3,0.3c2.9,2.7,6.6,4.1,10.3,4
			c4.4-0.2,8.9-2.6,12.6-7c0.3-0.3,0.6-0.7,0.9-1l0.3-0.4l0.5,0.5c1.4,1.3,2.9,2.5,4.4,3.4c6.2,3.9,14.4,5.9,24.3,5.9
			c9.1,0,17.2-2,23.4-5.9c5.7-3.6,10-9.2,12.2-16.2c0.7-2.3,1.8-6.9,1.6-11.9l0-0.3c-0.1-0.7-0.5-1.3-1.2-1.6l-0.3-0.1
			c-1-0.3-2.3-0.6-2.4-0.7c-9.9-2.5-24.1-2.5-27.2-2.4c-7.5,0.4-13.9,1.8-19.5,4.4c-4.6,2.1-8.8,5-13,9.2l-0.5,0.5
			c-0.2,0.2-0.4,0.4-0.6,0.6l-0.4,0.5l-0.2-0.6c-2.1-6.1-2.1-12.6-2.1-12.6V431c-0.1-1-0.1-1.9-0.1-2.8c0-21.9,10.2-33,30.3-33
			c1.3,0,2.5,0.1,3.6,0.2l0.8,0.1c0.7,0.1,1.5,0.1,2.1,0.3c0.1,0,0.3,0.1,0.4,0.1l0.3,0.1C263.6,398.1,268.8,405.1,271.2,410.8
			L271.2,410.8z M221.7,451.5c0.3-0.3,0.5-0.6,0.6-0.8c3.2-3.5,7.2-7.4,12.9-10c5.7-2.6,12.4-3.8,20.5-3.8c1.9,0,3.8,0.1,5.7,0.2
			l2,0.1c2.9,0.2,5.9,0.4,8.9,0.9l0.3,0.1l0,0.5c-0.1,0.9-0.7,8.9-5.8,14.7c-0.2,0.2-0.4,0.4-0.6,0.6l-0.1,0.1
			c-0.1,0.2-0.3,0.3-0.5,0.5c-0.5,0.5-1,0.9-1.4,1.3c-4.8,3.8-11.3,5.7-19.2,5.7c-10.6,0-18.6-3.2-23.6-9.6l-0.2-0.2L221.7,451.5z"
			/>
		<path class="st1" d="M718.5,456.4l-1.8-0.8h0.4L714,454c-0.1-0.1-0.3-0.1-0.5-0.1c-0.4,0-0.8,0.2-1,0.6c-2.2,3.3-5.1,5-8.6,5.4
			c-1.9,0.2-4.1,0-6.4-0.7l-1.5-0.4l1.1-1.1c6.4-6.5,9.6-16.4,9.6-29.6c0-10.4-2-18.8-5.9-25.1c-6.1-9.6-17-14.5-32.6-14.5
			c-26.3,0-39.1,12.9-39.1,39.6c0,26.1,13.2,39.4,39.1,39.4c7.7,0,14.3-1.2,19.8-3.6l0.4-0.2l0.4,0.2c4.7,2.5,9.3,3.7,13.7,3.7
			c0.7,0,1.4,0,2.2-0.1c2.4-0.2,6-1.1,9.5-3.7l0.4-0.3c0.3-0.3,0.6-0.6,1-0.9l0.8-0.8c0.2-0.2,0.4-0.4,0.6-0.6l0.2-0.3
			c0.1-0.1,0.3-0.3,0.4-0.4c0.4-0.4,0.7-0.8,1-1.3c0.2-0.3,0.4-0.5,0.6-0.8l0.1-0.1c0.1-0.2,0.2-0.4,0.2-0.7
			C719.3,457.1,719,456.6,718.5,456.4z M679.6,459.3c-3.4,1.1-7.3,1.6-11.4,1.6c-11.4,0-19.7-3.8-24.6-11.2l0,0l-0.4-0.5
			c-0.4-0.7-0.8-1.4-1.2-2.2l-0.1-0.2c-0.1-0.1-0.2-0.3-0.2-0.4l-0.4-0.9l0.1,0c-0.1-0.3-0.3-0.7-0.4-1l-0.4-0.9l1-0.3
			c5.5-1.5,11.5-1.7,17.1-0.5c0.7,0.1,1.4,0.3,2.2,0.5l0.3,0.1c5.4,1.6,10.5,5.1,14.4,9.8c1.4,1.7,2.9,3.3,4.6,4.7l1.2,1.1
			L679.6,459.3z M688.2,454.6l-0.6-0.5c-2.4-1.8-4.5-3.8-6.3-6c-3.8-4.6-8.7-8.3-14-10.7c-4.4-2.1-9.6-3.1-15.6-3.1
			c-3.8,0-7.9,0.4-12,1.3l-1,0.2l-0.2-1.8c-0.1-0.6-0.2-1.2-0.2-1.8l-0.1-1.1l0,0c-0.1-0.9-0.1-2.1-0.1-3.3
			c0-21.8,10.1-32.8,30.1-32.8c19.6,0,29.5,11,29.5,32.8c0,12-3,20.8-8.9,26.4L688.2,454.6z"/>
	</g>
</g>
</svg>
