<?xml version="1.0" encoding="utf-8"?>
<!-- Generator: Adobe Illustrator 19.1.0, SVG Export Plug-In . SVG Version: 6.00 Build 0)  -->
<svg version="1.1" id="Layer_1" xmlns="http://www.w3.org/2000/svg" xmlns:xlink="http://www.w3.org/1999/xlink" x="0px" y="0px"
	 viewBox="0 0 900 600" style="enable-background:new 0 0 900 600;" xml:space="preserve">
<style type="text/css">
	.st0{enable-background:new    ;}
	.st1{fill:#B82E28;}
	.st2{fill:#EF472E;}
	.st3{fill:url(#SVGID_1_);}
	.st4{fill:#939393;}
	.st5{fill:#676767;}
	.st6{fill:#A5A5A5;}
	.st7{fill:#DBDAD8;}
	.st8{fill:#F9F9FA;}
	.st9{fill:url(#SVGID_2_);}
	.st10{fill:#BB7B2A;}
	.st11{fill:#A56427;}
	.st12{fill:#FFD23F;}
	.st13{fill:url(#SVGID_3_);}
</style>
<g>
	<g>
		<g>
			<g class="st0">
				<path class="st1" d="M680.5,283.1l-72.9-26.4l25.1-27.3l5.6-27l-59,13.9l12.6-31.8l4.3-28.1l-66.5,40.2l-6.5-62.2l-37.6,53
					L450.2,114l-35.4,73.5l-37.6-53l-6.5,62.2l-66.4-40.2l4.3,28.1l12.6,31.8l-59-13.9l5.6,27l25.1,27.3l-72.9,26.4l7,25l62.7,23.5
					l-33.7,34.8l6,22.8l51.9-12.5l-17.3,39.7l4.8,21.5l68.2-41.1l3.1,44.2L375,462l39.5-56.1l35.8,78.7l35.6-78.7l39.5,56.1
					l2.4-20.8l3.1-45.3l68.2,42.1l4.8-21.5l-17.3-39.7l51.9,12.5l6-22.8l-33.7-34.8l62.7-23.5L680.5,283.1z M594.9,315.1l-4.4,24.2
					l17.8,18.5l-33.4-8l-3.8,23.3l13.7,31.7l-52.2-32.1l-2.5,22.7l-3.1,44.6l-39.9-56.3l-36.8,80.9l-37-80.9l-39.9,56.4l-3.1-43.6
					l-2.5-22.6l-52.4,31.4l13.9-32.1l-3.8-23.3l-33.4,8l17.8-18.5l-4.4-24.2l-48.3-18l54.4-19.8l-4.3-25.8l-14.9-16.2l40,9.5
					l-3.6-26.6L317.6,190l55.5,33.7l6.3-60.7l36.5,51.8l34.4-71.7l34.4,71.7l36.5-51.8l6.3,60.7l55.5-33.7l-11.2,28.1l-3.6,26.6
					l40-9.5L593,251.4l-4.3,25.8l54.4,19.8L594.9,315.1z"/>
				<polygon class="st2" points="594.9,315.1 644.6,366.4 574.9,349.7 604,416.5 532.6,372.7 527.9,441.2 487.1,383.6 450.3,464.5 
					413.3,383.6 372.5,441.2 367.8,373.7 296.4,416.5 325.5,349.7 255.8,366.4 305.5,315.1 219.9,283.1 307.4,251.4 262.2,202.4 
					328.8,218.1 304.3,156.4 370.7,196.6 377.2,134.4 414.8,187.5 450.2,114 485.6,187.5 523.2,134.4 529.7,196.6 596.1,156.4 
					571.6,218.1 638.2,202.4 593,251.4 680.5,283.1 				"/>
			</g>
			<linearGradient id="SVGID_1_" gradientUnits="userSpaceOnUse" x1="381.6435" y1="129.089" x2="479.9701" y2="364.7342">
				<stop  offset="0" style="stop-color:#F2AE22"/>
				<stop  offset="0.1685" style="stop-color:#F1AB23"/>
				<stop  offset="0.3403" style="stop-color:#F1A225"/>
				<stop  offset="0.5137" style="stop-color:#F09428"/>
				<stop  offset="0.6882" style="stop-color:#EF812A"/>
				<stop  offset="0.8619" style="stop-color:#EF662D"/>
				<stop  offset="1" style="stop-color:#EF472E"/>
			</linearGradient>
			<path class="st3" d="M593,251.4l45.2-49l-66.6,15.7l24.5-61.7l-66.5,40.2l-6.5-62.2l-37.6,53L450.2,114l-35.4,73.5l-37.6-53
				l-6.5,62.2l-66.4-40.2l24.5,61.7l-66.6-15.7l45.2,49l-87.5,31.7l85.6,31.9l-21.8,22.5c43.7,3.8,93.3,2.3,145.2-5.7
				c80-12.2,150.3-37.3,199.1-67.8L593,251.4z"/>
		</g>
		<g>
			<g>
				<g>
					<g>
						<path class="st4" d="M593.3,489.7c2.4,2.6,13-3.4,23.7-13.3c10.6-10,17.3-20.1,14.9-22.7l-9.1-9.7l-38.5,36.1L593.3,489.7z"/>
						<path class="st5" d="M622.9,444.1c2.7,2.9-3.7,13.3-14.4,23.3c-10.6,10-21.5,15.7-24.2,12.8c-2.7-2.9,3.7-13.3,14.4-23.3
							C609.4,446.9,620.2,441.2,622.9,444.1z"/>
						<path class="st4" d="M539.2,393.3c16.1-15.8,24.4-7.8,24.4-7.8s7.1,22.1,49.2,67.1c0,0-0.9,5-7.3,11c-6.4,6-12,7.1-12,7.1
							c-43.2-46.1-63.7-53.6-63.7-53.6S522.4,408.4,539.2,393.3z"/>
						<polygon class="st4" points="596.5,359.4 501.6,448.2 484.5,430 523.7,375.2 579.5,341.1 						"/>
					</g>
					<polygon class="st6" points="268,108.3 278.7,185.1 495.2,429.3 539.5,390.9 578.1,351.7 348.7,119.5 					"/>
				</g>
				<g id="not-gredient_1_">
					<g>
						<polyline class="st7" points="274.1,116.5 344.6,125.4 568.4,346.9 535,386.5 						"/>
						<polygon class="st7" points="550.1,402.6 593.2,359 583.7,350.5 543.5,394.7 						"/>
						<path class="st7" d="M605.3,448.5c0,0,0.5,4.7-5.2,10l-43.7-46.4c0,0,6.2-5.6,10.3-12.2C566.7,400,575.2,414.2,605.3,448.5z"
							/>
						<path class="st7" d="M631.3,455.1c0,0,0.8,5.1-16.5,21.3l-5.7-5.9c14.2-13.6,16.1-22.2,16.1-22.2L631.3,455.1z"/>
						<polyline class="st7" points="534.8,386.3 495.3,420.1 371,283.1 493.2,409 518.6,389.6 280.4,121.9 						"/>
						<polygon class="st7" points="474.7,337.3 472.1,391.1 448.1,363.8 429.8,287.5 						"/>
						<polygon class="st7" points="319.1,220 283.2,180.8 275.2,126.6 287.6,173.6 						"/>
						<polyline class="st7" points="404.2,317.7 369.9,219.3 337.2,181.8 394.3,308.8 						"/>
						<path class="st7" d="M549,418.5c0,0-1.6,2.7-4.7,3.2c0,0,7.4,5.8,21.5,17.9C565.8,439.6,553,424.3,549,418.5z"/>
						<path class="st7" d="M594.4,489.3l-6.3-6.7c0,0,2.2,1.1,6.8-2C594.9,480.5,591.2,484.7,594.4,489.3z"/>
						<polygon class="st7" points="503.2,444.7 495.4,433.8 512.6,420.1 502.7,435.3 						"/>
						<polygon class="st7" points="548.1,404.3 541.2,396.5 543.9,403.6 511.5,436.6 						"/>
					</g>
					<g>
						<path class="st8" d="M631.3,455.5c0,0-2.1,7.1-12.4,16.8c0,0,10.1-13.4,10-18.9L631.3,455.5z"/>
						<path class="st8" d="M605.3,448.5c0,0-27.6-32-35.8-43.7c0,0,10.9,21.4,35,48C604.6,452.8,605.3,451,605.3,448.5z"/>
						<polygon class="st8" points="593,359 583.6,350.8 586.8,359.4 550,402.5 						"/>
						<polygon class="st8" points="567.2,346.9 345,126.2 554.1,342.6 535.9,371 274.2,115.3 534.8,387.1 						"/>
						<polygon class="st8" points="353.8,135.3 284.9,118.3 345,126.2 						"/>
						<polygon class="st8" points="491.1,273.9 534.5,380.3 491.9,335.4 479.3,261.8 						"/>
						<polygon class="st8" points="445.8,293.1 410.1,191.7 387.2,168.2 400.2,242.7 						"/>
						<polyline class="st8" points="326,124.5 327.4,168.5 350,193.1 333.1,126.6 						"/>
					</g>
				</g>
			</g>
			<linearGradient id="SVGID_2_" gradientUnits="userSpaceOnUse" x1="311.5841" y1="123.3221" x2="391.2517" y2="211.1367">
				<stop  offset="0" style="stop-color:#FFFFFF"/>
				<stop  offset="1" style="stop-color:#010101"/>
			</linearGradient>
			<path class="st9" d="M274.4,116.6l108.9,110.1c0,0-9.1-56.2-28.1-89.5l-10.7-11.9L274.4,116.6z"/>
		</g>
	</g>
	<g>
		<g>
			<g class="st0">
				<polygon class="st10" points="717,248.6 687.2,248.6 669.8,272.5 674.6,330.6 703,330.6 697.6,272.5 				"/>
				<g>
					<polygon class="st11" points="723.2,309.6 703,330.6 674.6,330.6 692.7,309.6 					"/>
				</g>
				<g>
					<polygon class="st12" points="687.2,248.6 717,248.6 723.2,309.6 692.7,309.6 					"/>
				</g>
			</g>
			<g class="st0">
				<polygon class="st10" points="724.4,319.9 693.9,319.9 675.6,340.3 676.6,350.1 705.2,350.1 704.1,340.3 				"/>
				<g>
					<polygon class="st11" points="725.7,330.3 705.2,350.1 676.6,350.1 695,330.3 					"/>
				</g>
				<g>
					<polygon class="st12" points="695,330.3 693.9,319.9 724.4,319.9 725.7,330.3 					"/>
				</g>
			</g>
			<g class="st0">
				<path class="st10" d="M609.5,274l11.3-24.5h-89l-5.4,24.5l2.4,76.1h28.6l-1.3-29.1h56.5L609.5,274z M554.9,292.6h3.5l-3.1,9.4
					L554.9,292.6z"/>
				<g>
					<polygon class="st11" points="624.5,299.3 612.6,321 556.1,321 563.8,299.3 					"/>
				</g>
				<g>
					<polygon class="st11" points="565.3,330.3 557.4,350.1 528.8,350.1 534.6,330.3 					"/>
				</g>
				<g>
					<path class="st12" d="M531.8,249.4h89l3.6,49.9h-60.6l1.5,31h-30.7L531.8,249.4z M592.9,279.1l-0.6-10h-29.9l0.5,10H592.9"/>
				</g>
			</g>
			<g class="st0">
				<polygon class="st10" points="517,249.4 487.3,249.4 484.8,274 485.3,309.6 457.8,309.6 457.3,330.6 457.1,274 457.6,249.4 
					427.9,249.4 429.4,274 428.8,350.1 514.5,350.1 512.5,274 				"/>
				<g>
					<polygon class="st11" points="519.3,330.3 514.5,350.1 428.8,350.1 427.2,330.3 					"/>
				</g>
				<g>
					<polygon class="st12" points="517,249.4 519.3,330.3 427.2,330.3 427.9,249.4 457.6,249.4 457.8,309.6 488.2,309.6 
						487.3,249.4 					"/>
				</g>
			</g>
			<g>
				<path class="st10" d="M312.3,309.6l2.4-35.6l-11.3-24.5h-29.7L287,274l-4.5,56.6h28.4l-1.3,19.5h28.6l1.1-19.5l-9.8-21H312.3z
					 M362.7,249.4H333l9.4,24.5l-3.1,56.6h28.4l2.5-56.6L362.7,249.4z"/>
				<polygon class="st11" points="299,309.6 310.9,330.6 282.5,330.6 268.5,309.6 				"/>
				<polygon class="st12" points="273.7,249.4 303.3,249.4 299,309.6 268.5,309.6 				"/>
				<polygon class="st11" points="328.2,330.3 338.2,350.1 309.6,350.1 297.5,330.3 				"/>
				<polygon class="st12" points="297.5,330.3 299,309.6 329.4,309.6 328.2,330.3 				"/>
				<polygon class="st11" points="359.8,309.6 367.6,330.6 339.2,330.6 329.4,309.6 				"/>
				<polygon class="st12" points="333,249.4 362.7,249.4 359.8,309.6 329.4,309.6 				"/>
			</g>
			<g class="st0">
				<polygon class="st10" points="253.3,309.6 227.9,309.6 231.6,274 214.3,249.4 184.6,249.4 203.9,274 195.2,350.1 266.7,350.1 
					268.3,330.6 				"/>
				<g>
					<polygon class="st11" points="251.4,330.3 266.7,350.1 195.2,350.1 174.7,330.3 					"/>
				</g>
				<g>
					<polygon class="st12" points="214.3,249.4 207.7,309.6 253.3,309.6 251.4,330.3 174.7,330.3 184.6,249.4 					"/>
				</g>
			</g>
		</g>
		<linearGradient id="SVGID_3_" gradientUnits="userSpaceOnUse" x1="445.9688" y1="237.6046" x2="450.1844" y2="318.0424">
			<stop  offset="0" style="stop-color:#FFFFFF"/>
			<stop  offset="0.4121" style="stop-color:#FFF1B7"/>
			<stop  offset="1" style="stop-color:#FFD23F"/>
		</linearGradient>
		<path class="st13" d="M332.5,299.8c10.3-0.2,15.7-0.5,25.6-0.7l2.4-47.3h-24.9L332.5,299.8z M430.5,251.8L430,296
			c10.4-0.4,15.7-0.9,25.5-1.4l-0.1-42.9H430.5z M271.8,300.8c10.3-0.1,15.7-0.3,25.6-0.4l3.7-48.6h-24.9L271.8,300.8z M180.8,301.4
			c10.3,0,14.4,0,24.4-0.1l5.7-49.6h-23.7L180.8,301.4z M489.8,251.8l0.7,41.3c10.4-0.6,15.7-1.2,25.4-1.8l-1.2-39.5H489.8z
			 M714.7,250.9h-25l1.2,12.3c13.2-2.4,18.6-5.4,24.4-9.6L714.7,250.9z M534.3,251.8l1.4,38.4c34.9-2.4,59.9-5.1,85.2-7.7l-2.4-30.7
			H534.3z M563,279.1l-0.5-10h29.9l0.6,10H563z"/>
	</g>
</g>
</svg>
