<?xml version="1.0" encoding="utf-8"?>
<!-- Generator: Adobe Illustrator 19.1.0, SVG Export Plug-In . SVG Version: 6.00 Build 0)  -->
<svg version="1.1" id="Layer_1" xmlns="http://www.w3.org/2000/svg" xmlns:xlink="http://www.w3.org/1999/xlink" x="0px" y="0px"
	 viewBox="0 0 900 600" style="enable-background:new 0 0 900 600;" xml:space="preserve">
<style type="text/css">
	.st0{fill:#63C1E2;}
	.st1{fill:#888888;}
</style>
<g>
	<path class="st0" d="M202.9,137.9c-65.7,0-119,53.3-119,119c0,65.7,53.3,119,119,119c65.7,0,119-53.3,119-119
		C321.8,191.1,268.6,137.9,202.9,137.9z M202.9,360.8c-57.3,0-104-46.6-104-104c0-57.3,46.6-104,104-104c57.3,0,104,46.6,104,104
		C306.8,314.1,260.2,360.8,202.9,360.8z"/>
	<path class="st1" d="M462,248.2c-15.7,0-29.5,8-37.5,20.2c-8.1-12.2-21.9-20.2-37.5-20.2c-24.8,0-45,20.2-45,45v82.6h15v-82.6
		c0-16.6,13.5-30,30-30c16.5,0,30,13.4,30,30c0,0,0,0,0,0v82.6h0h15h0v-82.6c0,0,0,0,0,0c0-16.5,13.5-30,30-30c16.6,0,30,13.5,30,30
		v82.6h15v-82.6C507,268.4,486.8,248.2,462,248.2z"/>
	<rect x="537" y="250.7" class="st1" width="15" height="125.1"/>
	<circle class="st0" cx="544.5" cy="210.6" r="15"/>
	<path class="st1" d="M807.2,321h7.4c0.3-2.6,0.5-5.1,0.5-7.8c0-35.7-28.9-64.6-64.6-64.6c-35.7,0-64.6,28.9-64.6,64.6
		s28.9,64.6,64.6,64.6c25.5,0,47.5-14.7,58-36.1h-18.1c-8.9,12.5-23.5,20.6-39.9,20.6c-24.4,0-44.6-17.9-48.4-41.3h96.8H807.2z
		 M702.1,305.5c3.7-23.4,24-41.3,48.4-41.3c24.4,0,44.7,18,48.4,41.3H702.1z"/>
	<path class="st1" d="M620.1,377.6c-19.8-1.3-37.4-10.8-44.6-24l13.6-7.4c4.7,8.6,17.6,15,32.1,16c19.1,1.3,33.2-7,34-18.2
		c0.6-8.6-13.4-15.3-28-21.3c-1.9-0.8-3.8-1.5-5.7-2.3c-1.8-0.8-3.7-1.5-5.6-2.3c-19.5-7.9-41.5-16.9-40.1-36.7
		c1.4-20.2,24.7-34.6,53.1-32.6c19.8,1.3,37.3,10.7,44.5,23.9l-13.5,7.5c-4.7-8.5-17.6-14.9-32.1-15.9c-19.1-1.3-33.2,7-34,18.2
		c-0.6,8.6,13.4,15.3,27.9,21.3c1.9,0.8,3.8,1.5,5.7,2.3c1.8,0.8,3.7,1.5,5.6,2.3c19.4,7.9,41.5,16.9,40.1,36.7
		C671.8,365.2,648.5,379.6,620.1,377.6z"/>
</g>
</svg>
