<?xml version="1.0" encoding="utf-8"?>
<!-- Generator: Adobe Illustrator 19.1.0, SVG Export Plug-In . SVG Version: 6.00 Build 0)  -->
<svg version="1.1" id="Layer_1" xmlns="http://www.w3.org/2000/svg" xmlns:xlink="http://www.w3.org/1999/xlink" x="0px" y="0px"
	 viewBox="0 0 900 600" style="enable-background:new 0 0 900 600;" xml:space="preserve">
<style type="text/css">
	.st0{fill:#F99D35;}
	.st1{fill:#F27A34;}
	.st2{fill:#AD1F23;}
	.st3{fill:#E82426;}
	.st4{fill:#F58C3A;}
	.st5{fill:#00A2DD;}
	.st6{fill:url(#SVGID_1_);}
	.st7{fill:url(#SVGID_2_);}
	.st8{fill:url(#SVGID_3_);}
	.st9{fill:url(#SVGID_4_);}
	.st10{fill:url(#SVGID_5_);}
	.st11{fill:url(#SVGID_6_);}
	.st12{fill:url(#SVGID_7_);}
	.st13{fill:url(#SVGID_8_);}
</style>
<g id="long_x5F_logo_9_">
	<g>
		<polygon class="st0" points="141.2,261.6 179.6,261.6 160.4,220 		"/>
		<polygon class="st0" points="122,303.2 141.2,261.6 102.8,261.6 		"/>
		<polygon class="st0" points="218,178.4 198.8,220 237.2,220 		"/>
		<polygon class="st1" points="256.4,178.4 275.5,220 294.7,178.4 		"/>
		<polygon class="st1" points="102.8,344.8 141.2,344.8 122,303.2 		"/>
		<polygon class="st1" points="218,261.6 237.2,220 198.8,220 		"/>
		<polygon class="st2" points="256.4,178.4 237.2,220 275.5,220 		"/>
		<polygon class="st2" points="160.4,220 122,220 102.8,261.6 141.2,261.6 		"/>
		<polygon class="st2" points="198.8,386.4 237.2,386.4 218,344.8 		"/>
		<polygon class="st2" points="179.6,178.4 160.4,220 198.8,220 		"/>
		<polygon class="st2" points="237.2,136.8 198.8,136.8 218,178.4 		"/>
		<polygon class="st2" points="83.6,386.4 102.8,344.8 64.5,344.8 		"/>
		<polygon class="st2" points="160.4,303.2 141.2,344.8 218,344.8 198.8,303.2 		"/>
		<polygon class="st3" points="179.6,261.6 141.2,261.6 160.4,303.2 198.8,303.2 		"/>
		<polygon class="st3" points="64.5,344.8 102.8,344.8 122,303.2 102.8,261.6 		"/>
		<polygon class="st3" points="141.2,344.8 160.4,303.2 122,303.2 		"/>
		<polygon class="st3" points="218,261.6 256.4,261.6 237.2,220 		"/>
		<polygon class="st3" points="141.2,178.4 122,220 160.4,220 		"/>
		<polygon class="st3" points="237.2,136.8 218,178.4 237.2,220 256.4,178.4 		"/>
		<polygon class="st3" points="83.6,386.4 64.5,344.8 45.3,386.4 		"/>
		<polygon class="st3" points="198.8,220 218,178.4 179.6,178.4 		"/>
		<polygon class="st3" points="198.8,386.4 218,344.8 179.6,344.8 		"/>
	</g>
	<g>
		<g>
			<path class="st4" d="M295,344.6v-89.1c0-5.4,3.8-7.7,9.4-7.7h26.1c25.4,0,38.5,13.4,38.5,33v2.5c0,20.5-13.1,33.6-38.5,33.6
				h-15.7v27.7H295z M348.9,280.8c0-9.4-4.2-17.3-18.5-17.3h-15.7v37.6h15.7c13.7,0,18.5-8,18.5-17.9V280.8z"/>
			<path class="st4" d="M404,325.2c0,4.3,1.2,4.8,3.8,4.8h7.4v14.3c-3.1,0.5-9.5,0.8-12.5,0.8c-11.2,0-17.6-5.5-17.6-20v-77.7H404
				V325.2z"/>
			<path class="st4" d="M488.4,344.6h-18.4v-8.5c-3.8,4.6-11.9,9.6-21.9,9.6c-14.2,0-23.3-7.9-23.3-21.6v-1.4
				c0-10.6,8.3-20.7,31.4-20.7h13.3v-4.6c0-7.9-4-10.9-12.3-10.9c-7.4,0-12.2,3.4-13.7,9.7l-17.4-2.8c1.7-14.3,17.4-21.6,31-21.6
				c22,0,31.3,9.7,31.3,25.6V344.6z M469.6,315.2h-13.3c-8,0-12.3,2.9-12.3,7.4v0.8c0,4.9,2.9,7.6,8,7.6c5.1,0,11.6-2.6,16.2-7.9
				c1.1-1.2,1.4-2.5,1.4-4.3V315.2z"/>
			<path class="st4" d="M507.4,355.9h13.9c7.7,0,11.1-4,12.6-9.3l0.6-2.1c-4.6-0.3-10.5-2.2-13.3-10.2l-21-61.3h20.5l17.1,54.3
				c0.5,1.2,0.9,1.4,1.8,1.4l16.6-55.6h20.7l-24.5,76.3c-4.6,14.3-13.9,21.7-31.8,21.7h-13.4V355.9z"/>
			<path class="st5" d="M648.3,344.6H630v-8.5c-3.9,4.6-11.9,9.6-21.9,9.6c-14.2,0-23.3-7.9-23.3-21.6v-1.4
				c0-10.6,8.3-20.7,31.4-20.7h13.3v-4.6c0-7.9-4-10.9-12.3-10.9c-7.4,0-12.2,3.4-13.7,9.7l-17.4-2.8c1.7-14.3,17.4-21.6,31-21.6
				c22,0,31.3,9.7,31.3,25.6V344.6z M629.5,315.2h-13.3c-8,0-12.3,2.9-12.3,7.4v0.8c0,4.9,2.9,7.6,8,7.6c5.1,0,11.6-2.6,16.2-7.9
				c1.1-1.2,1.4-2.5,1.4-4.3V315.2z"/>
			<path class="st5" d="M686.4,272.8c3.7-0.3,7.9-0.6,12.9-0.6c22.7,0,34.2,12.2,34.2,31.4v9.6c0,21.4-11.2,32.2-34.2,32.2
				c-8.5,0-18.3-0.8-25.7-2c-4.8-0.8-6-3.1-6-6.5v-89.4h18.8V272.8z M686.4,329.7c3.5,0.5,8.3,0.6,12.9,0.6
				c10.6,0,15.4-4.3,15.4-17.1v-9.6c0-11.4-5.9-16.3-15.4-16.3c-4.8,0-9.2,0.3-12.9,0.6V329.7z"/>
			<path class="st5" d="M767.8,325.2c0,4.3,1.2,4.8,3.9,4.8h7.4v14.3c-3.1,0.5-9.6,0.8-12.5,0.8c-11.2,0-17.6-5.5-17.6-20v-77.7
				h18.8V325.2z"/>
			<path class="st5" d="M788.9,313.8v-10.9c0-17.7,11.9-31,33.6-31c22,0,32.2,13.4,32.2,31v6.6c0,3.1-2.2,5.5-6.2,5.5H808
				c0.1,10.3,4,15.6,14.6,15.6c7.2,0,12.3-2.6,13.6-8.8l17.4,2.9c-1.7,13.1-15.3,20.8-31,20.8C800.3,345.5,788.9,334.1,788.9,313.8z
				 M808,301.1h27.6c-0.5-9.5-4-14.2-13.1-14.2C813.1,287,808.3,291.8,808,301.1z"/>
		</g>
		<g>
			<linearGradient id="SVGID_1_" gradientUnits="userSpaceOnUse" x1="331.982" y1="344.613" x2="331.982" y2="247.7833">
				<stop  offset="0" style="stop-color:#F58C3A"/>
				<stop  offset="0.2357" style="stop-color:#F27A30;stop-opacity:0.7643"/>
				<stop  offset="0.4956" style="stop-color:#F06B29;stop-opacity:0.5044"/>
				<stop  offset="0.7522" style="stop-color:#EF6026;stop-opacity:0.2478"/>
				<stop  offset="1" style="stop-color:#EF5D25;stop-opacity:0"/>
			</linearGradient>
			<path class="st6" d="M295,344.6v-89.1c0-5.4,3.9-7.7,9.4-7.7h26.1c25.4,0,38.5,13.4,38.5,33v2.5c0,20.5-13.1,33.6-38.5,33.6
				h-15.7v27.7H295z M348.9,280.8c0-9.4-4.2-17.3-18.5-17.3h-15.7v37.6h15.7c13.7,0,18.5-8,18.5-17.9V280.8z"/>
			<linearGradient id="SVGID_2_" gradientUnits="userSpaceOnUse" x1="400.1926" y1="345.0758" x2="400.1926" y2="247.3177">
				<stop  offset="0" style="stop-color:#F58C3A"/>
				<stop  offset="0.2357" style="stop-color:#F27A30;stop-opacity:0.7643"/>
				<stop  offset="0.4956" style="stop-color:#F06B29;stop-opacity:0.5044"/>
				<stop  offset="0.7522" style="stop-color:#EF6026;stop-opacity:0.2478"/>
				<stop  offset="1" style="stop-color:#EF5D25;stop-opacity:0"/>
			</linearGradient>
			<path class="st7" d="M404,325.2c0,4.3,1.2,4.8,3.9,4.8h7.4v14.3c-3.1,0.5-9.6,0.8-12.5,0.8c-11.3,0-17.6-5.6-17.6-20v-77.7H404
				V325.2z"/>
			<linearGradient id="SVGID_3_" gradientUnits="userSpaceOnUse" x1="456.6958" y1="345.6827" x2="456.6958" y2="271.8296">
				<stop  offset="0" style="stop-color:#F58C3A"/>
				<stop  offset="0.2357" style="stop-color:#F27A30;stop-opacity:0.7643"/>
				<stop  offset="0.4956" style="stop-color:#F06B29;stop-opacity:0.5044"/>
				<stop  offset="0.7522" style="stop-color:#EF6026;stop-opacity:0.2478"/>
				<stop  offset="1" style="stop-color:#EF5D25;stop-opacity:0"/>
			</linearGradient>
			<path class="st8" d="M488.5,344.6h-18.3v-8.5c-3.9,4.6-11.9,9.5-21.9,9.5c-14.2,0-23.3-7.9-23.3-21.6v-1.4
				c0-10.6,8.3-20.7,31.5-20.7h13.3v-4.6c0-7.9-4-10.9-12.3-10.9c-7.4,0-12.2,3.4-13.7,9.7l-17.4-2.8c1.7-14.3,17.4-21.6,31-21.6
				c22.1,0,31.3,9.7,31.3,25.6V344.6z M469.6,315.2h-13.3c-8,0-12.3,2.9-12.3,7.4v0.8c0,4.9,2.9,7.6,8,7.6c5.1,0,11.6-2.6,16.2-7.9
				c1.1-1.2,1.4-2.5,1.4-4.3V315.2z"/>
			<linearGradient id="SVGID_4_" gradientUnits="userSpaceOnUse" x1="538.7134" y1="370.985" x2="538.7134" y2="272.9114">
				<stop  offset="0" style="stop-color:#F58C3A"/>
				<stop  offset="0.2357" style="stop-color:#F27A30;stop-opacity:0.7643"/>
				<stop  offset="0.4956" style="stop-color:#F06B29;stop-opacity:0.5044"/>
				<stop  offset="0.7522" style="stop-color:#EF6026;stop-opacity:0.2478"/>
				<stop  offset="1" style="stop-color:#EF5D25;stop-opacity:0"/>
			</linearGradient>
			<path class="st9" d="M507.4,355.9h13.9c7.7,0,11.1-4,12.6-9.3l0.6-2.2c-4.6-0.3-10.5-2.1-13.3-10.2l-21-61.4h20.5l17.1,54.3
				c0.5,1.2,0.9,1.4,1.8,1.4l16.7-55.7h20.7l-24.5,76.3c-4.6,14.3-13.9,21.7-31.8,21.7h-13.4V355.9z"/>
			<linearGradient id="SVGID_5_" gradientUnits="userSpaceOnUse" x1="616.5545" y1="345.6827" x2="616.5545" y2="271.8296">
				<stop  offset="0" style="stop-color:#00A2DD"/>
				<stop  offset="1" style="stop-color:#00A2DD;stop-opacity:0"/>
			</linearGradient>
			<path class="st10" d="M648.3,344.6H630v-8.5c-3.9,4.6-11.9,9.5-21.9,9.5c-14.2,0-23.3-7.9-23.3-21.6v-1.4
				c0-10.6,8.3-20.7,31.5-20.7h13.3v-4.6c0-7.9-4-10.9-12.3-10.9c-7.4,0-12.2,3.4-13.7,9.7l-17.4-2.8c1.7-14.3,17.4-21.6,31-21.6
				c22,0,31.3,9.7,31.3,25.6V344.6z M629.5,315.2h-13.3c-8,0-12.3,2.9-12.3,7.4v0.8c0,4.9,2.9,7.6,8,7.6c5.1,0,11.6-2.6,16.2-7.9
				c1.1-1.2,1.4-2.5,1.4-4.3V315.2z"/>
			<linearGradient id="SVGID_6_" gradientUnits="userSpaceOnUse" x1="700.5763" y1="345.3913" x2="700.5763" y2="247.4729">
				<stop  offset="0" style="stop-color:#00A2DD"/>
				<stop  offset="1" style="stop-color:#00A2DD;stop-opacity:0"/>
			</linearGradient>
			<path class="st11" d="M686.4,272.8c3.7-0.3,7.9-0.6,12.9-0.6c22.7,0,34.2,12.2,34.2,31.5v9.6c0,21.4-11.3,32.2-34.2,32.2
				c-8.5,0-18.4-0.8-25.7-2c-4.8-0.8-6-3.1-6-6.5v-89.4h18.8V272.8z M686.4,329.7c3.5,0.5,8.3,0.6,12.9,0.6
				c10.6,0,15.4-4.3,15.4-17.1v-9.6c0-11.4-5.9-16.3-15.4-16.3c-4.8,0-9.3,0.3-12.9,0.6V329.7z"/>
			<linearGradient id="SVGID_7_" gradientUnits="userSpaceOnUse" x1="764.009" y1="345.0758" x2="764.009" y2="247.3177">
				<stop  offset="0" style="stop-color:#00A2DD"/>
				<stop  offset="1" style="stop-color:#00A2DD;stop-opacity:0"/>
			</linearGradient>
			<path class="st12" d="M767.8,325.2c0,4.3,1.2,4.8,3.9,4.8h7.4v14.3c-3.1,0.5-9.6,0.8-12.5,0.8c-11.3,0-17.6-5.6-17.6-20v-77.7
				h18.8V325.2z"/>
			<linearGradient id="SVGID_8_" gradientUnits="userSpaceOnUse" x1="821.8157" y1="345.5456" x2="821.8157" y2="271.8296">
				<stop  offset="0" style="stop-color:#00A2DD"/>
				<stop  offset="1" style="stop-color:#00A2DD;stop-opacity:0"/>
			</linearGradient>
			<path class="st13" d="M788.9,313.8v-10.9c0-17.7,11.9-31,33.6-31c22.1,0,32.2,13.4,32.2,31v6.6c0,3.1-2.2,5.6-6.2,5.6H808
				c0.2,10.3,4,15.6,14.6,15.6c7.3,0,12.3-2.6,13.6-8.8l17.4,2.9c-1.7,13.1-15.3,20.8-31,20.8C800.3,345.5,788.9,334.1,788.9,313.8z
				 M808,301.1h27.6c-0.5-9.6-4-14.2-13.1-14.2C813.1,286.9,808.3,291.7,808,301.1z"/>
		</g>
	</g>
</g>
</svg>
