<?xml version="1.0" encoding="utf-8"?>
<!-- Generator: Adobe Illustrator 19.1.0, SVG Export Plug-In . SVG Version: 6.00 Build 0)  -->
<svg version="1.1" xmlns="http://www.w3.org/2000/svg" xmlns:xlink="http://www.w3.org/1999/xlink" x="0px" y="0px"
	 viewBox="0 0 900 600" style="enable-background:new 0 0 900 600;" xml:space="preserve">
<style type="text/css">
	.st0{display:none;}
	.st1{display:inline;}
	.st2{fill:#38484D;}
	.st3{fill:#38494E;}
	.st4{fill:#F99D35;}
	.st5{fill:#F27A34;}
	.st6{fill:#AD1F23;}
	.st7{fill:#E82426;}
	.st8{fill:#F58C3A;}
	.st9{fill:#00A2DD;}
	.st10{fill:url(#SVGID_1_);}
	.st11{fill:url(#SVGID_2_);}
	.st12{fill:url(#SVGID_3_);}
	.st13{fill:url(#SVGID_4_);}
	.st14{fill:url(#SVGID_5_);}
	.st15{fill:url(#SVGID_6_);}
	.st16{fill:url(#SVGID_7_);}
	.st17{fill:url(#SVGID_8_);}
	.st18{fill:#4B97D2;}
	.st19{display:inline;fill:#4B97D2;}
	.st20{fill-rule:evenodd;clip-rule:evenodd;fill:#F4A946;}
	.st21{clip-path:url(#SVGID_10_);}
	.st22{fill:#FFFFFF;}
	.st23{fill:#53C8E5;}
	.st24{fill:#231F20;}
	.st25{fill:#F9A020;}
	.st26{fill:#010101;}
	.st27{fill:#1396D1;}
	.st28{fill:#111111;}
	.st29{fill:#2BC4F2;}
	.st30{fill:#CD3928;}
	.st31{fill:#282827;}
</style>
<g id="Layer_1">
	<g class="st0">
		<g class="st1">
			<g>
				<g>
					<path class="st2" d="M475.8,176.4c0,0-0.1-0.1-0.1-0.1c0,0,0,0.1,0,0.1L475.8,176.4z"/>
					<g>
						<polygon class="st2" points="428.7,176.8 428.7,176.7 428.7,176.7 						"/>
						<path class="st2" d="M712.8,277.2C712.8,277.2,712.8,277.1,712.8,277.2l-11.2-6l-0.8-0.4c-0.5-0.2-1.1-0.3-1.7-0.3
							c-1.5,0-2.8,0.8-3.6,1.9c-0.1,0-0.1,0.1-0.1,0.1c-5.7,8.3-12.9,12.8-22.1,13.7c-5,0.5-10.6-0.1-16.5-1.9l-2.4-0.7l1.7-1.8
							c17.1-17.5,25.7-44.1,25.7-79.2c0-27.7-5.4-50.3-15.9-67.1c-16.3-25.9-45.6-39-87.3-39c-51.2,0-83.2,18.3-97,55.6
							c-9-4.7-20.6-7.1-33.2-6.2c0,0,0,0,0,0c-0.1,0-0.3,0-0.4,0c0,0,0,0,0,0c-1,0.1-2,0.2-3,0.3c-0.3,0-0.7,0.1-1,0.1
							c-1,0.1-2.1,0.3-3.1,0.5c-0.3,0.1-0.6,0.1-0.9,0.2c-0.9,0.2-1.9,0.4-2.8,0.6c-0.2,0.1-0.4,0.1-0.7,0.2c-1,0.2-1.9,0.5-2.8,0.8
							c-0.3,0.1-0.6,0.2-0.9,0.2c-1,0.3-1.9,0.6-2.8,0.9c-0.2,0.1-0.5,0.2-0.7,0.3c-0.9,0.3-1.8,0.7-2.7,1.1c-0.1,0-0.2,0.1-0.3,0.1
							c-0.4,0.2-0.8,0.4-1.2,0.6c-0.3-1-0.6-2.1-1-3.1l-0.3-0.7c-0.7-1.6-1.3-3.2-2.1-4.9c-15.3-30.9-46-46.5-91.4-46.5
							c-70.6,0-104.9,34.7-104.9,106.2c0,4.1,0.1,8.2,0.4,12.2c0,0.6,0.1,1.2,0.2,1.9c0.1,1.4,0.3,2.7,0.4,4
							c1.3,11.2,4.6,28.8,12.8,43.9c-1.6,1.9-3.1,3.9-4.8,5.8c-5.8,6.8-12.5,10.9-18.4,11.1c-0.3,0-0.6,0-0.9,0
							c-5.8,0-11.5-3.2-14.9-8.2c0,0,0,0,0,0c0,0,0,0,0,0c-0.1-0.2-0.2-0.4-0.4-0.5c0,0,0,0,0,0h0c-0.8-0.9-2-1.5-3.2-1.5
							c-0.7,0-1.4,0.2-2,0.5c0,0,0,0,0,0l-10,5.2l-0.9,0.4c-1.7,1.1-2.9,3-2.9,5.2c0,1,0.3,2,0.7,2.9c0.2,0.3,0.3,0.5,0.5,0.8
							c1.5,2.3,3.5,4.8,5.8,6.9l0.9,0.7c7.9,7.2,17.8,11.1,28,10.7c12-0.4,24.1-7.1,34-18.8c0.9-1,1.7-2,2.5-3
							c0.2,0.2,0.3,0.4,0.5,0.5c3.7,3.5,7.6,6.6,11.7,9.1c16.6,10.4,38.4,15.7,64.9,15.7c24.3,0,45.9-5.4,62.4-15.7
							c15.4-9.5,26.7-24.6,32.8-43.5c1.5-5.2,4.8-17.8,4.4-31.7c0-0.3,0-0.6,0-0.9c-0.2-2.3-1.7-4.2-3.8-5c-0.3-0.1-0.6-0.2-0.9-0.3
							c-2.7-0.8-6.5-1.8-6.5-1.8c-22.9-5.7-54.3-6.4-68.2-6.4c-1.7,0-3,0-3.9,0c-19.9,1.1-37,4.9-52.1,11.7
							c-12.4,5.6-23.3,13.4-34.6,24.7l-1.2,1.2c-0.5,0.6-1.1,1.1-1.6,1.6c-5.5-16-5.6-33.1-5.6-33.1l0,0c-0.1-2.6-0.2-5.1-0.2-7.5
							c0-57.1,26.6-86.1,79-86.1c3.3,0,6.4,0.3,9.5,0.5l2,0.2c1.9,0.2,3.8,0.4,5.6,0.7c0.4,0.1,0.7,0.1,1.1,0.2l0.8,0.2
							c29.5,5.8,42.8,24.9,48.8,40.3l0,0c0,0.1,0,0.1,0,0.2c2.4,6.3,3.7,12,4.3,15.9c0,0,0,0,0,0c0.1,0.6,0.2,1.1,0.5,1.6
							c0.7,1.4,2.1,2.3,3.8,2.3h0.2h18.8h0.2c1.1,0,2.1-0.5,2.9-1.2c0,0,0,0,0,0c0,0,0,0,0,0l0,0c0.1,0,0.1,0,0.1,0
							c0.1-0.1,0.2-0.2,0.4-0.3l0.1-0.1l0.1-0.1c0.4-0.3,0.7-0.6,1.1-0.8l0.3-0.2c0.3-0.2,0.7-0.4,1.2-0.8c0.1,0,0.1-0.1,0.2-0.1
							l0.1-0.1c0.4-0.2,0.8-0.5,1.3-0.7c0.2-0.1,0.4-0.2,0.5-0.3c0.6-0.3,1.1-0.5,1.5-0.7l0.1-0.1l0.1-0.1c0.4-0.2,1-0.4,1.6-0.6
							l0.4-0.2l0.2-0.1c0.6-0.2,1.2-0.4,1.7-0.6c0.1,0,0.1,0,0.2-0.1l0.3-0.1c0.7-0.2,1.4-0.4,1.9-0.5l0.1,0l0.3-0.1
							c0.5-0.1,1.1-0.3,1.8-0.4l0.4-0.1l0.1,0l0.1,0c0.7-0.1,1.4-0.2,2-0.3l0.1,0l0.3,0l0.4-0.1c0.6-0.1,1.3-0.1,2-0.2
							c0.2,0,0.4,0,0.6-0.1c12.8-0.8,22,3.4,25.2,7.2c0,0,0.1,0.1,0.1,0.1l-0.1,0c-1.1,7.3-1.6,15-1.7,23.3c0,1,0,1.9,0,2.9
							c0,70,35.3,105.5,104.8,105.5c20.6,0,38.4-3.2,52.9-9.6l0.7-0.3l0.6,0.3c12.7,6.7,25,10.1,36.8,10.1c1.8,0,3.7-0.1,5.9-0.3
							c6.5-0.7,16.2-3,25.6-10.1l1.1-0.8c1-0.8,2-1.8,3-2.7l1.8-1.6v0l0.1-0.2c0.6-0.6,1.2-1.2,1.8-1.9l0.3-0.3
							c0.4-0.4,0.8-0.9,1.2-1.3c1-1.2,1.8-2.3,2.6-3.4c0.5-0.7,1-1.5,1.5-2.2c0.1-0.1,0.1-0.2,0.2-0.3c0.4-0.7,0.7-1.5,0.7-2.3
							C715.5,279.4,714.4,277.8,712.8,277.2z M270.3,262.2c8.3-9.1,18.8-19.4,33.7-26.1c15-6.8,32.6-10.1,53.9-10.1
							c4.8,0,9.9,0.2,15.1,0.5l5.4,0.3c8.1,0.5,15.6,1,23.5,2.3c0,0.1,0,0.2,0,0.3c-0.2,2.9-2,23.3-15,38.3c-0.5,0.6-1,1.1-1.6,1.7
							c-0.5,0.5-0.9,1-1.4,1.5c-1.4,1.3-2.6,2.5-3.6,3.3c-12.5,9.9-29.4,14.9-50,14.9c-27.9,0-48.5-8.4-61.7-25
							C269.3,263.4,269.9,262.7,270.3,262.2z M429.3,176.1C429.3,176.1,429.3,176.1,429.3,176.1
							C429.3,176.1,429.3,176.1,429.3,176.1z M429.7,175.4C429.7,175.3,429.8,175.3,429.7,175.4
							C429.8,175.3,429.7,175.3,429.7,175.4z M430,174.6c0,0,0-0.1,0-0.1C430,174.5,430,174.5,430,174.6z M608.7,284.6
							c-9,2.9-19.1,4.3-30.1,4.3c-30.2,0-52.1-10-64.9-29.7l-0.1,0l-0.6-0.9c-1.1-1.7-2.1-3.5-3.1-5.7c-0.1-0.2-0.3-0.5-0.4-0.7
							c-0.2-0.3-0.4-0.7-0.6-1.1l-0.7-1.4l0.2-0.1c-0.5-1.2-0.9-2.3-1.3-3.5l-0.6-1.5l1.6-0.5c14.4-3.9,30.2-4.3,44.8-1.3
							c2,0.4,3.9,0.8,5.8,1.4l0.7,0.2c14.1,4.2,27.6,13.3,37.7,25.6c3.6,4.3,7.7,8.5,12.2,12.6l1.9,1.8L608.7,284.6z M632.7,270.9
							l-0.9,0.9l-1-0.8c-6.2-4.6-11.8-9.9-16.6-15.7c-10.3-12.5-23.3-22.4-37.5-28.7c-11.7-5.6-25.7-8.4-41.8-8.4
							c-10.2,0-21.1,1.1-32.2,3.4l-1.6,0.3l-0.4-3.7c-0.2-1.5-0.4-3.1-0.5-4.7c-0.1-1.1-0.1-1.7-0.1-1.7l0-0.7l0.1-0.1
							c-0.2-2.9-0.3-5.9-0.3-9.2c0-0.7,0-1.4,0-2.1c0.1-7.2,0.6-13.9,1.5-20.1c6.4-42.3,32.3-63.7,77.3-63.7
							c51.3,0,77.3,28.9,77.3,86C656,233.2,648.1,256.5,632.7,270.9z"/>
					</g>
				</g>
			</g>
		</g>
		<g class="st1">
			<path class="st3" d="M505.7,465.6l0-4.3c-0.1-0.6-0.5-1.1-1.1-1.1l-0.1,0l-0.1,0h-46.1l48.4-63.8c0.1-0.2,0.2-0.5,0.2-0.7V390
				c0-0.7-0.6-1.3-1.3-1.3h-55.1c-0.7,0-1.3,0.6-1.3,1.3v4.3c0,0.7,0.5,1.2,1.2,1.3l0,0l0.1,0h47.7l-1,1.2l-48.9,62.5l0,0.1
				c-0.2,0.2-0.2,0.5-0.2,0.7v5.6c0,0.7,0.6,1.3,1.3,1.3h55.1c0.7,0,1.2-0.5,1.3-1.1l0.4-0.1l-0.4-0.1L505.7,465.6z"/>
			<path class="st3" d="M523.6,467h55.1c0.7,0,1.2-0.5,1.3-1.2l0-0.1c0,0,0-0.1,0-0.1l0-4.2c0-0.1,0-0.1,0-0.1
				c-0.1-0.6-0.5-1.1-1.1-1.1l-0.1,0l-0.1,0h-46.1l0.9-1.2l47.4-62.6c0.1-0.2,0.2-0.4,0.2-0.7V390c0-0.7-0.6-1.3-1.3-1.3h-55.1
				c-0.7,0-1.2,0.5-1.3,1.2v4.3c0,0.7,0.5,1.3,1.2,1.3l0,0l0.1,0h47.7l-49.9,63.8c-0.1,0.2-0.2,0.4-0.2,0.6l-0.4,0.1h0.4v5.5
				l-0.4,0.1l0.4,0C522.3,466.5,522.9,467,523.6,467z"/>
			<path class="st3" d="M349.5,460.4l-40.5,0v-70.1c0-0.8-0.6-1.3-1.3-1.3h-5.9c-0.7,0-1.3,0.6-1.3,1.3v75.3c0,0.7,0.6,1.3,1.3,1.3
				h47.6c0.7,0,1.3-0.6,1.3-1.3v-3.9C350.7,460.9,350.2,460.4,349.5,460.4z"/>
			<path class="st3" d="M404.8,389.5c-0.2-0.5-0.7-0.8-1.2-0.8h-8.8c-0.5,0-0.9,0.3-1.1,0.7l-0.1,0.3l-32.1,75.6
				c-0.1,0.1-0.1,0.3-0.1,0.5c0,0.7,0.6,1.3,1.3,1.3h6.3c0.5,0,1-0.3,1.2-0.8l28.7-70.1l16,38.9l-21.8,0c-0.5,0-0.9,0.3-1.1,0.8l0,0
				c0,0.1-0.1,0.3-0.1,0.3l-1.6,4.6c0,0.1-0.1,0.2-0.1,0.3c0,0.5,0.4,0.8,0.8,0.9h26.6l0.1,0.2l9.8,23.7h0l0.1,0.3
				c0.2,0.5,0.6,0.9,1.2,0.9h7c0.7,0,1.3-0.6,1.3-1.3c0-0.2,0-0.3-0.1-0.5L404.8,389.5z"/>
			<path class="st3" d="M608,389h-5.9c-0.7,0-1.3,0.6-1.3,1.3v75.3c0,0.7,0.6,1.3,1.3,1.3h5.9c0.7,0,1.3-0.6,1.3-1.3v-75.3
				C609.3,389.5,608.7,389,608,389z"/>
			<path class="st3" d="M271.2,410.8l0.2,0.6c0.9,2.4,1.4,4.6,1.6,6h0c0,0,0,0.1,0,0.1l0,0.1c0.1,0.6,0.6,1,1.2,1h7.2
				c0.7,0,1.3-0.6,1.3-1.3l0-0.3c-0.4-2.5-0.9-4.7-1.5-6.8l0-0.1c-0.1-0.2-0.2-0.5-0.2-0.7c-0.1-0.4-0.3-0.9-0.4-1.3l-0.1-0.3
				c-0.2-0.6-0.5-1.2-0.8-1.8c-5.7-11.5-17.2-17.4-34.2-17.4c-26.4,0-39.3,13-39.3,39.8c0,1.5,0.1,3,0.1,4.6l0.1,0.7
				c0,0.3,0.1,0.6,0.1,0.9l0.1,0.6c0.5,4.4,1.7,10.9,4.8,16.5l0.1,0.2l-0.2,0.2c-0.6,0.7-1.2,1.5-1.8,2.2c-2.3,2.7-4.9,4.2-7.2,4.3
				c-0.1,0-0.2,0-0.3,0c-1.9,0-3.9-0.9-5.3-2.4v0.3l-0.7-1.2c0-0.1-0.1-0.1-0.1-0.1l0,0c-0.4-0.4-1-0.5-1.5-0.3l-0.6,0.3v0l-3.5,1.8
				c-0.5,0.3-0.9,1-0.9,1.6c0,0.3,0.1,0.6,0.2,0.9l0.1,0.2c0.7,1.1,1.4,1.9,2.2,2.6l0.3,0.3c2.9,2.7,6.6,4.1,10.3,4
				c4.4-0.2,8.9-2.6,12.6-7c0.3-0.3,0.6-0.7,0.9-1l0.3-0.4l0.5,0.5c1.4,1.3,2.9,2.5,4.4,3.4c6.2,3.9,14.4,5.9,24.3,5.9
				c9.1,0,17.2-2,23.4-5.9c5.7-3.6,10-9.2,12.2-16.2c0.7-2.3,1.8-6.9,1.6-11.9l0-0.3c-0.1-0.7-0.5-1.3-1.2-1.6l-0.3-0.1
				c-1-0.3-2.3-0.6-2.4-0.7c-9.9-2.5-24.1-2.5-27.2-2.4c-7.5,0.4-13.9,1.8-19.5,4.4c-4.6,2.1-8.8,5-13,9.2l-0.5,0.5
				c-0.2,0.2-0.4,0.4-0.6,0.6l-0.4,0.5l-0.2-0.6c-2.1-6.1-2.1-12.6-2.1-12.6V431c-0.1-1-0.1-1.9-0.1-2.8c0-21.9,10.2-33,30.3-33
				c1.3,0,2.5,0.1,3.6,0.2l0.8,0.1c0.7,0.1,1.5,0.1,2.1,0.3c0.1,0,0.3,0.1,0.4,0.1l0.3,0.1C263.6,398.1,268.8,405.1,271.2,410.8
				L271.2,410.8z M221.7,451.5c0.3-0.3,0.5-0.6,0.6-0.8c3.2-3.5,7.2-7.4,12.9-10c5.7-2.6,12.4-3.8,20.5-3.8c1.9,0,3.8,0.1,5.7,0.2
				l2,0.1c2.9,0.2,5.9,0.4,8.9,0.9l0.3,0.1l0,0.5c-0.1,0.9-0.7,8.9-5.8,14.7c-0.2,0.2-0.4,0.4-0.6,0.6l-0.1,0.1
				c-0.1,0.2-0.3,0.3-0.5,0.5c-0.5,0.5-1,0.9-1.4,1.3c-4.8,3.8-11.3,5.7-19.2,5.7c-10.6,0-18.6-3.2-23.6-9.6l-0.2-0.2L221.7,451.5z"
				/>
			<path class="st3" d="M718.5,456.4l-1.8-0.8h0.4L714,454c-0.1-0.1-0.3-0.1-0.5-0.1c-0.4,0-0.8,0.2-1,0.6c-2.2,3.3-5.1,5-8.6,5.4
				c-1.9,0.2-4.1,0-6.4-0.7l-1.5-0.4l1.1-1.1c6.4-6.5,9.6-16.4,9.6-29.6c0-10.4-2-18.8-5.9-25.1c-6.1-9.6-17-14.5-32.6-14.5
				c-26.3,0-39.1,12.9-39.1,39.6c0,26.1,13.2,39.4,39.1,39.4c7.7,0,14.3-1.2,19.8-3.6l0.4-0.2l0.4,0.2c4.7,2.5,9.3,3.7,13.7,3.7
				c0.7,0,1.4,0,2.2-0.1c2.4-0.2,6-1.1,9.5-3.7l0.4-0.3c0.3-0.3,0.6-0.6,1-0.9l0.8-0.8c0.2-0.2,0.4-0.4,0.6-0.6l0.2-0.3
				c0.1-0.1,0.3-0.3,0.4-0.4c0.4-0.4,0.7-0.8,1-1.3c0.2-0.3,0.4-0.5,0.6-0.8l0.1-0.1c0.1-0.2,0.2-0.4,0.2-0.7
				C719.3,457.1,719,456.6,718.5,456.4z M679.6,459.3c-3.4,1.1-7.3,1.6-11.4,1.6c-11.4,0-19.7-3.8-24.6-11.2l0,0l-0.4-0.5
				c-0.4-0.7-0.8-1.4-1.2-2.2l-0.1-0.2c-0.1-0.1-0.2-0.3-0.2-0.4l-0.4-0.9l0.1,0c-0.1-0.3-0.3-0.7-0.4-1l-0.4-0.9l1-0.3
				c5.5-1.5,11.5-1.7,17.1-0.5c0.7,0.1,1.4,0.3,2.2,0.5l0.3,0.1c5.4,1.6,10.5,5.1,14.4,9.8c1.4,1.7,2.9,3.3,4.6,4.7l1.2,1.1
				L679.6,459.3z M688.2,454.6l-0.6-0.5c-2.4-1.8-4.5-3.8-6.3-6c-3.8-4.6-8.7-8.3-14-10.7c-4.4-2.1-9.6-3.1-15.6-3.1
				c-3.8,0-7.9,0.4-12,1.3l-1,0.2l-0.2-1.8c-0.1-0.6-0.2-1.2-0.2-1.8l-0.1-1.1l0,0c-0.1-0.9-0.1-2.1-0.1-3.3
				c0-21.8,10.1-32.8,30.1-32.8c19.6,0,29.5,11,29.5,32.8c0,12-3,20.8-8.9,26.4L688.2,454.6z"/>
		</g>
	</g>
	<g id="long_x5F_logo_9_">
		<g>
			<polygon class="st4" points="141.2,261.6 179.6,261.6 160.4,220 			"/>
			<polygon class="st4" points="122,303.2 141.2,261.6 102.8,261.6 			"/>
			<polygon class="st4" points="218,178.4 198.8,220 237.2,220 			"/>
			<polygon class="st5" points="256.4,178.4 275.5,220 294.7,178.4 			"/>
			<polygon class="st5" points="102.8,344.8 141.2,344.8 122,303.2 			"/>
			<polygon class="st5" points="218,261.6 237.2,220 198.8,220 			"/>
			<polygon class="st6" points="256.4,178.4 237.2,220 275.5,220 			"/>
			<polygon class="st6" points="160.4,220 122,220 102.8,261.6 141.2,261.6 			"/>
			<polygon class="st6" points="198.8,386.4 237.2,386.4 218,344.8 			"/>
			<polygon class="st6" points="179.6,178.4 160.4,220 198.8,220 			"/>
			<polygon class="st6" points="237.2,136.8 198.8,136.8 218,178.4 			"/>
			<polygon class="st6" points="83.6,386.4 102.8,344.8 64.5,344.8 			"/>
			<polygon class="st6" points="160.4,303.2 141.2,344.8 218,344.8 198.8,303.2 			"/>
			<polygon class="st7" points="179.6,261.6 141.2,261.6 160.4,303.2 198.8,303.2 			"/>
			<polygon class="st7" points="64.5,344.8 102.8,344.8 122,303.2 102.8,261.6 			"/>
			<polygon class="st7" points="141.2,344.8 160.4,303.2 122,303.2 			"/>
			<polygon class="st7" points="218,261.6 256.4,261.6 237.2,220 			"/>
			<polygon class="st7" points="141.2,178.4 122,220 160.4,220 			"/>
			<polygon class="st7" points="237.2,136.8 218,178.4 237.2,220 256.4,178.4 			"/>
			<polygon class="st7" points="83.6,386.4 64.5,344.8 45.3,386.4 			"/>
			<polygon class="st7" points="198.8,220 218,178.4 179.6,178.4 			"/>
			<polygon class="st7" points="198.8,386.4 218,344.8 179.6,344.8 			"/>
		</g>
		<g>
			<g>
				<path class="st8" d="M295,344.6v-89.1c0-5.4,3.8-7.7,9.4-7.7h26.1c25.4,0,38.5,13.4,38.5,33v2.5c0,20.5-13.1,33.6-38.5,33.6
					h-15.7v27.7H295z M348.9,280.8c0-9.4-4.2-17.3-18.5-17.3h-15.7v37.6h15.7c13.7,0,18.5-8,18.5-17.9V280.8z"/>
				<path class="st8" d="M404,325.2c0,4.3,1.2,4.8,3.8,4.8h7.4v14.3c-3.1,0.5-9.5,0.8-12.5,0.8c-11.2,0-17.6-5.5-17.6-20v-77.7H404
					V325.2z"/>
				<path class="st8" d="M488.4,344.6h-18.4v-8.5c-3.8,4.6-11.9,9.6-21.9,9.6c-14.2,0-23.3-7.9-23.3-21.6v-1.4
					c0-10.6,8.3-20.7,31.4-20.7h13.3v-4.6c0-7.9-4-10.9-12.3-10.9c-7.4,0-12.2,3.4-13.7,9.7l-17.4-2.8c1.7-14.3,17.4-21.6,31-21.6
					c22,0,31.3,9.7,31.3,25.6V344.6z M469.6,315.2h-13.3c-8,0-12.3,2.9-12.3,7.4v0.8c0,4.9,2.9,7.6,8,7.6c5.1,0,11.6-2.6,16.2-7.9
					c1.1-1.2,1.4-2.5,1.4-4.3V315.2z"/>
				<path class="st8" d="M507.4,355.9h13.9c7.7,0,11.1-4,12.6-9.3l0.6-2.1c-4.6-0.3-10.5-2.2-13.3-10.2l-21-61.3h20.5l17.1,54.3
					c0.5,1.2,0.9,1.4,1.8,1.4l16.6-55.6h20.7l-24.5,76.3c-4.6,14.3-13.9,21.7-31.8,21.7h-13.4V355.9z"/>
				<path class="st9" d="M648.3,344.6H630v-8.5c-3.9,4.6-11.9,9.6-21.9,9.6c-14.2,0-23.3-7.9-23.3-21.6v-1.4
					c0-10.6,8.3-20.7,31.4-20.7h13.3v-4.6c0-7.9-4-10.9-12.3-10.9c-7.4,0-12.2,3.4-13.7,9.7l-17.4-2.8c1.7-14.3,17.4-21.6,31-21.6
					c22,0,31.3,9.7,31.3,25.6V344.6z M629.5,315.2h-13.3c-8,0-12.3,2.9-12.3,7.4v0.8c0,4.9,2.9,7.6,8,7.6c5.1,0,11.6-2.6,16.2-7.9
					c1.1-1.2,1.4-2.5,1.4-4.3V315.2z"/>
				<path class="st9" d="M686.4,272.8c3.7-0.3,7.9-0.6,12.9-0.6c22.7,0,34.2,12.2,34.2,31.4v9.6c0,21.4-11.2,32.2-34.2,32.2
					c-8.5,0-18.3-0.8-25.7-2c-4.8-0.8-6-3.1-6-6.5v-89.4h18.8V272.8z M686.4,329.7c3.5,0.5,8.3,0.6,12.9,0.6
					c10.6,0,15.4-4.3,15.4-17.1v-9.6c0-11.4-5.9-16.3-15.4-16.3c-4.8,0-9.2,0.3-12.9,0.6V329.7z"/>
				<path class="st9" d="M767.8,325.2c0,4.3,1.2,4.8,3.9,4.8h7.4v14.3c-3.1,0.5-9.6,0.8-12.5,0.8c-11.2,0-17.6-5.5-17.6-20v-77.7
					h18.8V325.2z"/>
				<path class="st9" d="M788.9,313.8v-10.9c0-17.7,11.9-31,33.6-31c22,0,32.2,13.4,32.2,31v6.6c0,3.1-2.2,5.5-6.2,5.5H808
					c0.1,10.3,4,15.6,14.6,15.6c7.2,0,12.3-2.6,13.6-8.8l17.4,2.9c-1.7,13.1-15.3,20.8-31,20.8C800.3,345.5,788.9,334.1,788.9,313.8
					z M808,301.1h27.6c-0.5-9.5-4-14.2-13.1-14.2C813.1,287,808.3,291.8,808,301.1z"/>
			</g>
			<g>
				<linearGradient id="SVGID_1_" gradientUnits="userSpaceOnUse" x1="331.982" y1="344.613" x2="331.982" y2="247.7833">
					<stop  offset="0" style="stop-color:#F58C3A"/>
					<stop  offset="0.2357" style="stop-color:#F27A30;stop-opacity:0.7643"/>
					<stop  offset="0.4956" style="stop-color:#F06B29;stop-opacity:0.5044"/>
					<stop  offset="0.7522" style="stop-color:#EF6026;stop-opacity:0.2478"/>
					<stop  offset="1" style="stop-color:#EF5D25;stop-opacity:0"/>
				</linearGradient>
				<path class="st10" d="M295,344.6v-89.1c0-5.4,3.9-7.7,9.4-7.7h26.1c25.4,0,38.5,13.4,38.5,33v2.5c0,20.5-13.1,33.6-38.5,33.6
					h-15.7v27.7H295z M348.9,280.8c0-9.4-4.2-17.3-18.5-17.3h-15.7v37.6h15.7c13.7,0,18.5-8,18.5-17.9V280.8z"/>
				<linearGradient id="SVGID_2_" gradientUnits="userSpaceOnUse" x1="400.1926" y1="345.0758" x2="400.1926" y2="247.3177">
					<stop  offset="0" style="stop-color:#F58C3A"/>
					<stop  offset="0.2357" style="stop-color:#F27A30;stop-opacity:0.7643"/>
					<stop  offset="0.4956" style="stop-color:#F06B29;stop-opacity:0.5044"/>
					<stop  offset="0.7522" style="stop-color:#EF6026;stop-opacity:0.2478"/>
					<stop  offset="1" style="stop-color:#EF5D25;stop-opacity:0"/>
				</linearGradient>
				<path class="st11" d="M404,325.2c0,4.3,1.2,4.8,3.9,4.8h7.4v14.3c-3.1,0.5-9.6,0.8-12.5,0.8c-11.3,0-17.6-5.6-17.6-20v-77.7H404
					V325.2z"/>
				<linearGradient id="SVGID_3_" gradientUnits="userSpaceOnUse" x1="456.6958" y1="345.6827" x2="456.6958" y2="271.8296">
					<stop  offset="0" style="stop-color:#F58C3A"/>
					<stop  offset="0.2357" style="stop-color:#F27A30;stop-opacity:0.7643"/>
					<stop  offset="0.4956" style="stop-color:#F06B29;stop-opacity:0.5044"/>
					<stop  offset="0.7522" style="stop-color:#EF6026;stop-opacity:0.2478"/>
					<stop  offset="1" style="stop-color:#EF5D25;stop-opacity:0"/>
				</linearGradient>
				<path class="st12" d="M488.5,344.6h-18.3v-8.5c-3.9,4.6-11.9,9.5-21.9,9.5c-14.2,0-23.3-7.9-23.3-21.6v-1.4
					c0-10.6,8.3-20.7,31.5-20.7h13.3v-4.6c0-7.9-4-10.9-12.3-10.9c-7.4,0-12.2,3.4-13.7,9.7l-17.4-2.8c1.7-14.3,17.4-21.6,31-21.6
					c22.1,0,31.3,9.7,31.3,25.6V344.6z M469.6,315.2h-13.3c-8,0-12.3,2.9-12.3,7.4v0.8c0,4.9,2.9,7.6,8,7.6c5.1,0,11.6-2.6,16.2-7.9
					c1.1-1.2,1.4-2.5,1.4-4.3V315.2z"/>
				<linearGradient id="SVGID_4_" gradientUnits="userSpaceOnUse" x1="538.7134" y1="370.985" x2="538.7134" y2="272.9114">
					<stop  offset="0" style="stop-color:#F58C3A"/>
					<stop  offset="0.2357" style="stop-color:#F27A30;stop-opacity:0.7643"/>
					<stop  offset="0.4956" style="stop-color:#F06B29;stop-opacity:0.5044"/>
					<stop  offset="0.7522" style="stop-color:#EF6026;stop-opacity:0.2478"/>
					<stop  offset="1" style="stop-color:#EF5D25;stop-opacity:0"/>
				</linearGradient>
				<path class="st13" d="M507.4,355.9h13.9c7.7,0,11.1-4,12.6-9.3l0.6-2.2c-4.6-0.3-10.5-2.1-13.3-10.2l-21-61.4h20.5l17.1,54.3
					c0.5,1.2,0.9,1.4,1.8,1.4l16.7-55.7h20.7l-24.5,76.3c-4.6,14.3-13.9,21.7-31.8,21.7h-13.4V355.9z"/>
				<linearGradient id="SVGID_5_" gradientUnits="userSpaceOnUse" x1="616.5545" y1="345.6827" x2="616.5545" y2="271.8296">
					<stop  offset="0" style="stop-color:#00A2DD"/>
					<stop  offset="1" style="stop-color:#00A2DD;stop-opacity:0"/>
				</linearGradient>
				<path class="st14" d="M648.3,344.6H630v-8.5c-3.9,4.6-11.9,9.5-21.9,9.5c-14.2,0-23.3-7.9-23.3-21.6v-1.4
					c0-10.6,8.3-20.7,31.5-20.7h13.3v-4.6c0-7.9-4-10.9-12.3-10.9c-7.4,0-12.2,3.4-13.7,9.7l-17.4-2.8c1.7-14.3,17.4-21.6,31-21.6
					c22,0,31.3,9.7,31.3,25.6V344.6z M629.5,315.2h-13.3c-8,0-12.3,2.9-12.3,7.4v0.8c0,4.9,2.9,7.6,8,7.6c5.1,0,11.6-2.6,16.2-7.9
					c1.1-1.2,1.4-2.5,1.4-4.3V315.2z"/>
				<linearGradient id="SVGID_6_" gradientUnits="userSpaceOnUse" x1="700.5763" y1="345.3913" x2="700.5763" y2="247.4729">
					<stop  offset="0" style="stop-color:#00A2DD"/>
					<stop  offset="1" style="stop-color:#00A2DD;stop-opacity:0"/>
				</linearGradient>
				<path class="st15" d="M686.4,272.8c3.7-0.3,7.9-0.6,12.9-0.6c22.7,0,34.2,12.2,34.2,31.5v9.6c0,21.4-11.3,32.2-34.2,32.2
					c-8.5,0-18.4-0.8-25.7-2c-4.8-0.8-6-3.1-6-6.5v-89.4h18.8V272.8z M686.4,329.7c3.5,0.5,8.3,0.6,12.9,0.6
					c10.6,0,15.4-4.3,15.4-17.1v-9.6c0-11.4-5.9-16.3-15.4-16.3c-4.8,0-9.3,0.3-12.9,0.6V329.7z"/>
				<linearGradient id="SVGID_7_" gradientUnits="userSpaceOnUse" x1="764.009" y1="345.0758" x2="764.009" y2="247.3177">
					<stop  offset="0" style="stop-color:#00A2DD"/>
					<stop  offset="1" style="stop-color:#00A2DD;stop-opacity:0"/>
				</linearGradient>
				<path class="st16" d="M767.8,325.2c0,4.3,1.2,4.8,3.9,4.8h7.4v14.3c-3.1,0.5-9.6,0.8-12.5,0.8c-11.3,0-17.6-5.6-17.6-20v-77.7
					h18.8V325.2z"/>
				<linearGradient id="SVGID_8_" gradientUnits="userSpaceOnUse" x1="821.8157" y1="345.5456" x2="821.8157" y2="271.8296">
					<stop  offset="0" style="stop-color:#00A2DD"/>
					<stop  offset="1" style="stop-color:#00A2DD;stop-opacity:0"/>
				</linearGradient>
				<path class="st17" d="M788.9,313.8v-10.9c0-17.7,11.9-31,33.6-31c22.1,0,32.2,13.4,32.2,31v6.6c0,3.1-2.2,5.6-6.2,5.6H808
					c0.2,10.3,4,15.6,14.6,15.6c7.3,0,12.3-2.6,13.6-8.8l17.4,2.9c-1.7,13.1-15.3,20.8-31,20.8C800.3,345.5,788.9,334.1,788.9,313.8
					z M808,301.1h27.6c-0.5-9.6-4-14.2-13.1-14.2C813.1,286.9,808.3,291.7,808,301.1z"/>
			</g>
		</g>
	</g>
	<g class="st0">
		<g class="st1">
			<path class="st18" d="M161.3,244.4c-6.5,0-11.5,4.6-11.5,10.5c0,0,0.2,46.8,0.2,46.8c0,17.6-13,31.6-30.5,33.9l-0.2-81.3
				c0-5.6-5.6-11.1-11.3-11.1h-0.1l-0.1,0c-6.7,0.4-10.6,6.1-10.6,11.5c0,0,0.1,62.3,0.2,81.2c-16.5-2.6-29.7-17.3-29.7-34.2v-46.8
				c0-5.8-5.1-10.5-11.3-10.5c-5.6,0-10.5,4.9-10.5,10.5v46.8c0,33.9,24.9,55.8,63.4,55.8c36.7,0,62.4-23,62.4-55.8v-46.8
				C171.6,249.2,166.9,244.4,161.3,244.4z"/>
		</g>
		<path class="st19" d="M391.1,244.4c-15.1,0-29.3,5.7-39.9,16.1c-10.7,10.4-16.5,24.5-16.5,39.6v46.8c0,5.6,4.9,10.5,10.5,10.5
			c6.1,0,10.5-4.4,10.5-10.5c0,0.1,0.8-46.7,0.8-46.7c0-19.5,15.2-34.7,34.6-34.7c19.4,0,34.7,15.2,34.7,34.6V346
			c0,5.7,5.2,10.5,11.3,10.5c5.5,0,10.5-5,10.5-10.5V300C447.6,268.9,422.8,244.4,391.1,244.4z"/>
		<path class="st19" d="M515.5,243c-31.3,0-56.8,25.6-56.8,57c0,31.5,25.5,57.1,56.8,57.1c12.8,0,25.2-4.5,35-12.4
			c-0.9,19-16.2,34.1-35,34.1c-6.1,0-11.3,4.8-11.3,10.5c0,5.8,5.1,10.5,11.3,10.5c31.5,0,57.1-25.5,57.1-56.9V300
			C572.6,268.6,547,243,515.5,243z M515.5,265.2c18.9,0,34.3,14.5,35,33.1v4.4c-0.8,18-16.8,33.1-35,33.1
			c-19.4,0-35.9-16.4-35.9-35.9C479.6,280.8,495.7,265.2,515.5,265.2z"/>
		<path class="st19" d="M640.6,244.4c-15.1,0-29.3,5.7-39.9,16.1c-10.7,10.4-16.5,24.5-16.5,39.6v46.8c0,5.6,4.9,10.5,10.5,10.5
			c6.1,0,10.5-4.4,10.5-10.5c0,0.1,0.8-46.7,0.8-46.7c0-19.5,15.2-34.7,34.6-34.7c19.4,0,34.6,15.2,34.6,34.6V346
			c0,5.7,5.2,10.5,11.3,10.5c5.5,0,10.5-5,10.5-10.5V300C697.1,268.9,672.3,244.4,640.6,244.4z"/>
		<path class="st19" d="M765.5,244.8c-31.3,0-56.8,25-56.8,55.6c0,31.9,25,56.9,56.8,56.9c12.9,0,25.1-4.4,34.9-12.3v2
			c0,6.8,5.6,11.3,10.9,11.3c6.4,0,10.9-4.6,10.9-11.3v-46.6C822.2,269.8,796.8,244.8,765.5,244.8z M765.5,336.5
			c-19.2,0-34.8-16.2-34.8-36.1c0-19.5,15.3-34.8,34.8-34.8c19.2,0,34.9,15.6,34.9,34.8v2.9C799.2,322,784,336.5,765.5,336.5z"/>
		<path class="st19" d="M844.7,243.2c-6.5,0-10.9,4.4-10.9,10.9V347c0,6.1,4.7,10.7,10.9,10.7c4.9,0,10.5-4.6,10.5-10.7v-92.9
			C855.2,247.4,849.8,243.2,844.7,243.2z"/>
		<g class="st1">
			<path class="st20" d="M253.4,230.4c-38.5,0-69.9,31.4-69.9,69.9c0,15.3,4.9,29.5,13.3,41l-8.7,26l26.9-8.6
				c11,7.3,24.3,11.6,38.5,11.6c38.5,0,69.9-31.4,69.9-69.9C323.3,261.8,291.9,230.4,253.4,230.4z"/>
			<g>
				<defs>
					<path id="SVGID_9_" d="M253.4,230.4c-38.5,0-69.9,31.4-69.9,69.9c0,15.3,4.9,29.5,13.3,41l-8.7,26l26.9-8.6
						c11,7.3,24.3,11.6,38.5,11.6c38.5,0,69.9-31.4,69.9-69.9C323.3,261.8,291.9,230.4,253.4,230.4z"/>
				</defs>
				<use xlink:href="#SVGID_9_"  style="overflow:visible;fill-rule:evenodd;clip-rule:evenodd;fill:#FAAB45;"/>
				<clipPath id="SVGID_10_">
					<use xlink:href="#SVGID_9_"  style="overflow:visible;"/>
				</clipPath>
				<g class="st21">
					<path class="st22" d="M270.5,327.9c0.1-4.2,4.5-15.5-11.3-28.4c-15.8-12.9-32.6-15.7-39-8.6l-0.7,0.8l-0.6,0.7
						c-6.4,7.1-1.9,23.6,12.6,38c14.5,14.3,25.2,8.7,29.4,8.1c4.2-0.6,6.4,0.1,10.2,3.3c3.8,3.2,18.8,17.8,18.8,17.8l7.5,7.6
						l7.6-5.1c0,0-26.1-20.9-29.7-24.4C271.6,334.5,270.4,332.1,270.5,327.9z"/>
					<path class="st22" d="M300.7,316.8c-2.3-2.6-4.6-5.7-4.5-10.4c0.1-4.7-1-9.6-12.7-19.8c-11.7-10.3-28.8-26-28.8-26
						s-0.7-0.4-0.9-0.2c-0.6,0.6-0.5,0.7,0.9,2.1c1.4,1.4,28.7,29.1,28.7,29.1s2.7,2.4,1.6,3.5c-1.2,1.2-7.2-4.9-12.6-10l-22-20.5
						c0,0-0.6-0.3-1,0.1c-0.4,0.4-0.5,0.6,0.3,1.5c0.8,0.9,29.3,30.8,29.3,30.8s1.1,1.2,0.3,2l-0.1,0.1c-0.8,0.9-2-0.3-2-0.3
						s-30-28.9-30.9-29.7c-0.9-0.8-0.9-0.6-1.3-0.2c-0.4,0.4,0,1.1,0,1.1l20.4,22.1c5.1,5.5,11.1,11.5,9.9,12.6
						c-1.2,1.2-3.5-1.6-3.5-1.6s-27.6-27.5-29-28.9c-1.4-1.4-1.5-1.5-2.1-0.9c-0.3,0.2,0.2,0.9,0.2,0.9s15.6,17.2,25.8,28.9
						c10.2,11.7,15,12.9,19.7,12.7c4.7-0.1,7.9,2.3,10.5,4.6c2.5,2.3,22.8,22.9,22.8,22.9l3.7-5.5
						C323.3,338.1,303,319.4,300.7,316.8z"/>
				</g>
			</g>
		</g>
	</g>
	<g class="st0">
		<g class="st1">
			<g>
				<path class="st23" d="M853.4,251.5c0,7.7-6.3,14-14,14c-7.7,0-14-6.3-14-14c0-7.7,6.3-14,14-14
					C847.1,237.6,853.4,243.8,853.4,251.5z"/>
			</g>
			<g>
				<path class="st24" d="M361,319.9c0,5.7-1.6,10.8-4.9,15.3c-3.3,4.5-8.1,8-14.4,10.6c-6.3,2.6-13.8,3.8-22.5,3.8
					c-10.4,0-18.9-1.7-25.7-5.2c-4.8-2.5-8.7-5.9-11.7-10.1c-3-4.2-4.5-8.3-4.5-12.2c0-2.3,0.9-4.3,2.7-5.9c1.8-1.6,4.1-2.5,6.9-2.5
					c2.2,0,4.1,0.6,5.7,1.9c1.5,1.3,2.9,3.2,4,5.7c1.3,3,2.8,5.5,4.3,7.5c1.6,2,3.7,3.7,6.6,5c2.8,1.3,6.5,1.9,11.1,1.9
					c6.3,0,11.4-1.3,15.4-3.9c3.9-2.6,5.9-5.9,5.9-9.8c0-3.1-1.1-5.6-3.2-7.6c-2.1-1.9-4.9-3.4-8.3-4.4c-3.4-1-7.9-2.1-13.5-3.3
					c-7.6-1.6-13.9-3.4-19-5.5c-5.1-2.1-9.1-5-12.1-8.6c-3-3.6-4.5-8.2-4.5-13.6c0-5.2,1.6-9.7,4.7-13.7c3.2-4,7.7-7.1,13.7-9.2
					c6-2.2,13-3.2,21.1-3.2c6.5,0,12,0.7,16.7,2.1c4.7,1.4,8.6,3.3,11.7,5.7c3.1,2.4,5.4,4.8,6.8,7.4c1.4,2.6,2.2,5.1,2.2,7.6
					c0,2.3-0.9,4.3-2.7,6.1c-1.8,1.8-4,2.7-6.7,2.7c-2.4,0-4.3-0.5-5.6-1.6c-1.3-1.1-2.6-2.9-4.1-5.3c-1.9-3.5-4.2-6.3-6.9-8.3
					c-2.7-2-7-3-12.9-3c-5.5,0-9.9,1.1-13.3,3.2c-3.4,2.2-5.1,4.7-5.1,7.8c0,1.9,0.6,3.5,1.7,4.9c1.1,1.4,2.7,2.5,4.7,3.5
					c2,1,4,1.7,6.1,2.3c2.1,0.6,5.5,1.4,10.2,2.4c5.9,1.2,11.3,2.6,16.1,4.1c4.8,1.5,8.9,3.3,12.3,5.4c3.4,2.1,6,4.8,7.9,8.1
					C360.1,311.2,361,315.2,361,319.9z"/>
				<path class="st24" d="M432.4,318.5h-38.3c0,4,0.9,7.4,2.7,10.5c1.7,3,4.1,5.3,7,6.8c2.9,1.5,6.1,2.3,9.6,2.3
					c2.3,0,4.5-0.2,6.4-0.7c1.9-0.5,3.8-1.2,5.6-2.3c1.8-1,3.5-2.2,5-3.4c1.5-1.2,3.5-2.8,6-4.9c1-0.8,2.4-1.2,4.3-1.2
					c2,0,3.6,0.5,4.9,1.5c1.2,1,1.9,2.4,1.9,4.2c0,1.6-0.7,3.4-2.1,5.5c-1.4,2.1-3.5,4.1-6.3,6.1c-2.8,1.9-6.3,3.5-10.5,4.8
					c-4.2,1.3-9.1,1.9-14.6,1.9c-12.6,0-22.4-3.2-29.3-9.6c-7-6.4-10.5-15-10.5-26c0-5.1,0.9-9.9,2.6-14.3c1.7-4.4,4.2-8.2,7.5-11.3
					c3.3-3.2,7.4-5.6,12.2-7.3c4.8-1.7,10.2-2.5,16.1-2.5c7.6,0,14.2,1.4,19.7,4.3c5.5,2.9,9.6,6.6,12.3,11.1
					c2.7,4.6,4.1,9.2,4.1,13.9c0,4.4-1.4,7.2-4.2,8.5C441.5,317.8,437.5,318.5,432.4,318.5z M394.1,308.6h35.5
					c-0.5-6-2.3-10.4-5.4-13.4c-3.1-3-7.3-4.4-12.4-4.4c-4.9,0-8.9,1.5-12,4.5C396.7,298.3,394.8,302.7,394.1,308.6z"/>
				<path class="st24" d="M465,339.1v-75.6c0-3.5,0.9-6.1,2.6-7.9c1.7-1.8,4.1-2.7,7.1-2.7c3,0,5.4,0.9,7.2,2.7
					c1.8,1.8,2.7,4.4,2.7,8v75.6c0,3.5-0.9,6.2-2.8,8c-1.8,1.8-4.2,2.7-7.1,2.7c-2.9,0-5.2-0.9-7-2.8
					C465.9,345.1,465,342.5,465,339.1z"/>
				<path class="st24" d="M504.8,339.1v-75.6c0-3.5,0.9-6.1,2.6-7.9c1.7-1.8,4.1-2.7,7.1-2.7c3,0,5.4,0.9,7.2,2.7
					c1.8,1.8,2.7,4.4,2.7,8v75.6c0,3.5-0.9,6.2-2.8,8c-1.8,1.8-4.2,2.7-7.1,2.7c-2.9,0-5.2-0.9-7-2.8
					C505.7,345.1,504.8,342.5,504.8,339.1z"/>
				<path class="st25" d="M607.7,326.9c0,4.8-1.3,8.9-3.9,12.4c-2.6,3.4-6.5,6-11.7,7.8c-5.1,1.8-11.4,2.7-18.8,2.7
					c-7,0-13.1-1-18.1-2.9c-5-1.9-8.7-4.3-11.1-7.2c-2.4-2.9-3.6-5.8-3.6-8.7c0-1.9,0.8-3.6,2.3-4.9c1.5-1.4,3.5-2,5.8-2
					c2.1,0,3.6,0.4,4.7,1.3c1.1,0.9,2.2,2.1,3.2,3.8c2,3.1,4.4,5.4,7.2,7c2.8,1.5,6.6,2.3,11.4,2.3c3.9,0,7.1-0.8,9.6-2.3
					c2.5-1.6,3.8-3.3,3.8-5.3c0-3.1-1.3-5.3-3.9-6.7c-2.6-1.4-6.9-2.8-12.9-4c-6.7-1.5-12.2-3.1-16.5-4.7c-4.2-1.6-7.6-3.8-10.1-6.5
					c-2.5-2.7-3.8-6-3.8-9.9c0-3.5,1.2-6.8,3.5-9.9c2.3-3.1,5.8-5.6,10.4-7.4c4.6-1.9,10.1-2.8,16.5-2.8c5.1,0,9.6,0.5,13.7,1.4
					c4,0.9,7.4,2.2,10.1,3.8c2.7,1.6,4.8,3.3,6.2,5.2c1.4,1.9,2.1,3.8,2.1,5.6c0,2-0.8,3.6-2.3,4.9c-1.5,1.3-3.7,1.9-6.4,1.9
					c-2,0-3.7-0.5-5.1-1.5c-1.4-1-3-2.6-4.8-4.6c-1.5-1.7-3.2-3.1-5.2-4.1c-2-1-4.7-1.5-8.2-1.5c-3.5,0-6.5,0.7-8.8,2
					c-2.4,1.3-3.5,3-3.5,5c0,1.8,0.9,3.3,2.6,4.5c1.7,1.2,4,2.1,7,2.9c2.9,0.8,6.9,1.7,12,2.8c6.1,1.3,11,2.9,14.9,4.7
					c3.8,1.8,6.8,4,8.7,6.5C606.7,320.8,607.7,323.7,607.7,326.9z"/>
				<path class="st25" d="M675.1,339.8v-2.2c-2.3,2.6-4.8,4.9-7.4,6.6c-2.6,1.8-5.4,3.1-8.5,4c-3.1,0.9-6.6,1.3-10.5,1.3
					c-4.7,0-9-0.9-12.7-2.6c-3.8-1.7-6.7-4.1-8.7-7.2c-2.4-3.7-3.7-9-3.7-16v-34.6c0-3.5,0.9-6.1,2.7-7.8c1.8-1.7,4.1-2.6,7-2.6
					c3,0,5.4,0.9,7.2,2.6c1.8,1.7,2.7,4.3,2.7,7.8v27.9c0,4,0.4,7.4,1.1,10.2c0.8,2.7,2.1,4.9,4.1,6.4c2,1.6,4.7,2.3,8.1,2.3
					c3.3,0,6.4-0.9,9.3-2.6c2.9-1.7,5-4,6.4-6.8c1.1-2.5,1.7-7.9,1.7-16.2v-21.2c0-3.4,0.9-6,2.7-7.8c1.8-1.7,4.2-2.6,7.1-2.6
					c2.9,0,5.3,0.9,7,2.6c1.8,1.7,2.7,4.3,2.7,7.8v50.5c0,3.3-0.8,5.8-2.5,7.5c-1.7,1.7-3.9,2.5-6.6,2.5c-2.7,0-4.9-0.9-6.6-2.6
					C676,345.3,675.1,342.9,675.1,339.8z"/>
				<path class="st25" d="M761.7,341.7l-17.3-25.3l-10.6,8.9v13.9c0,3.4-1,6-3,7.8c-2,1.8-4.3,2.7-6.8,2.7c-3,0-5.4-0.9-7.1-2.7
					c-1.7-1.8-2.6-4.4-2.6-7.9v-74.4c0-3.9,0.8-6.8,2.5-8.9c1.7-2,4.1-3,7.2-3c3,0,5.4,0.9,7.2,2.8c1.8,1.8,2.7,4.5,2.7,8.1V306
					l22-20.6c2.7-2.5,4.8-4.3,6.2-5.2c1.4-0.9,3.2-1.4,5.2-1.4c2.4,0,4.5,0.7,6.1,2.1c1.6,1.4,2.4,3.1,2.4,5.2c0,2.6-2.7,6-8,10.2
					l-10.4,8.5l20.1,28.1c1.5,2.1,2.5,3.7,3.2,4.8c0.6,1.1,1,2.1,1,3.1c0,2.8-0.8,4.9-2.5,6.5c-1.7,1.6-3.9,2.4-6.7,2.4
					c-2.4,0-4.2-0.6-5.5-1.7C765.7,346.8,763.9,344.7,761.7,341.7z"/>
				<path class="st25" d="M813.1,288.6v50.4c0,3.5-0.9,6.1-2.8,7.9c-1.9,1.8-4.2,2.7-7.1,2.7c-2.9,0-5.2-0.9-7-2.8
					c-1.8-1.8-2.7-4.4-2.7-7.9v-49.9c0-3.4,0.9-6,2.7-7.8c1.8-1.7,4.1-2.6,7-2.6c2.9,0,5.2,0.9,7.1,2.6
					C812.2,283.1,813.1,285.5,813.1,288.6z"/>
			</g>
			<g>
				<g>
					<g>
						<path class="st26" d="M226,219.7c-1.9-7.7-5.7-14.6-14.4-15.4c-8.7-0.8-17.1,3.4-23.7,8.6c-3.9,3.1-8,6.1-12.2,8.8
							c-14.4,9.4-24.2,8.1-24.2,8.1s-9.4,1.3-23.8-8.1c-4.2-2.7-7.9-5.7-11.8-8.8c-6.6-5.3-15-9.4-23.7-8.6
							c-8.6,0.8-12.5,7.7-14.4,15.4c0,0-4.7,12.6-3.9,70.5c0,0-0.2,43.7,4.7,54.6c0,0,11.2,39.7,72.8,39.9
							c61.6-0.2,73.2-39.9,73.2-39.9c4.9-10.9,5-54.6,5-54.6C230.5,232.3,226,219.7,226,219.7z"/>
					</g>
					<g>
						<path class="st25" d="M186,231.6c0,0,18.9,6.5,31.4,19.5c0,0,1.3,1.1,2.4,1.2c-0.5-7.3,0.5-14.7-0.1-22
							c-0.2-2.4-0.3-4.8-0.9-7.1c-0.5-2-1.5-4.6-3.4-5.8c-3.3-2.1-8.6-0.2-11.8,1.4c-5.9,2.9-10.3,7.4-15.4,11.3
							C187.8,230.5,186.4,231.8,186,231.6z"/>
					</g>
					<g>
						<path class="st22" d="M211.2,226.1c-8.6-4.5-20.1,7.4-20.3,7.6c6.3,2.8,17.3,8.4,25.7,16.8c0-0.7,0.3-2.3,0.3-2.6
							c0.1-1.1,0.1-2.1,0.1-3.2C217.2,238.5,217.6,229.3,211.2,226.1z"/>
					</g>
					<g>
						<path class="st25" d="M219.8,300.8c0,0,0.8-37.9-26.3-51.9c0,0-17.7-10.1-41.5-9.5c-23.8-0.7-41.5,9.5-41.5,9.5
							c-27.1,14-26.3,51.9-26.3,51.9c-2.6,46.9,14.1,55.7,14.1,55.7c7.8,8,19.4,4.9,19.4,4.9c22.1-7.3,29.5-15.8,29.5-23.5
							c0-8.9-9.7-10.1-14.4-14c-4.8-4-4.4-10.6-4.4-10.6s0.2-0.7,1.6-1.5c2.1-1.5,7.6-3.4,22-3.4c0.1,0,0.2,0,0.3,0
							c0.1,0,0.2,0,0.3,0v0c22.2,0.1,23.6,4.9,23.6,4.9s0.4,6.6-4.4,10.6c-4.7,4-14.7,5.3-14.7,15.2l-0.1-0.1
							c0.6,7.4,8.4,15.5,29.5,22.4c0,0,11.6,3.2,19.4-4.9C205.7,356.5,222.4,347.6,219.8,300.8z"/>
					</g>
					<g>
						<path class="st26" d="M206.7,232c0.3-0.2,0.5-0.3,0.9-0.3c1.4,0.2,0.2,3.3,0,4.1c-0.4,1.8-0.7,3.6-0.7,5.4
							c0,0.4,0,1.4,0.4,1.7c0,0-8.7-5.4-10.6-5.9c2.3,0.7,4.2-0.5,6-1.9c0.7-0.5,1.3-1,2-1.5c0.4-0.3,0.7-0.6,1.1-0.9
							C206.2,232.5,206.4,232.2,206.7,232z"/>
					</g>
					<path class="st27" d="M193.5,248.9c0,0-17.7-10.1-41.5-9.5c-23.8-0.7-41.5,9.5-41.5,9.5c-12.1,6.2-18.6,17.2-22.2,27.4h127.3
						C212.1,266.1,205.5,255.1,193.5,248.9z"/>
					<g>
						<path class="st26" d="M201.9,301.2c0-4.1-3.3-7.5-7.5-7.5c-4.1,0-7.5,3.3-7.5,7.5c0,4.1,3.3,7.5,7.5,7.5
							C198.5,308.7,201.9,305.4,201.9,301.2z"/>
					</g>
					<g>
						<path class="st22" d="M200.7,283.2c0.6,2.2-1.8,4.7-5.4,5.7c-3.6,1-6.9,0-7.5-2.2c-0.6-2.2,1.8-4.7,5.4-5.7
							C196.8,280,200.1,281.1,200.7,283.2z"/>
					</g>
					<g>
						<path class="st25" d="M118,231.6c0,0-18.9,6.5-31.4,19.5c0,0-1.3,1.1-2.4,1.2c0.5-7.3-0.5-14.7,0.1-22
							c0.2-2.4,0.3-4.8,0.9-7.1c0.5-2,1.5-4.6,3.4-5.8c3.3-2.1,8.6-0.2,11.8,1.4c5.9,2.9,10.3,7.4,15.4,11.3
							C116.2,230.5,117.6,231.8,118,231.6z"/>
					</g>
					<g>
						<path class="st22" d="M92.7,226.1c8.6-4.5,20.1,7.4,20.3,7.6c-6.3,2.8-17.3,8.4-25.7,16.8c0-0.7-0.3-2.3-0.3-2.6
							c-0.1-1.1-0.1-2.1-0.1-3.2C86.8,238.5,86.3,229.3,92.7,226.1z"/>
					</g>
					<g>
						<path class="st26" d="M97.2,232c-0.3-0.2-0.6-0.3-0.9-0.3c-1.4,0.2-0.2,3.3,0,4.1c0.4,1.8,0.7,3.6,0.7,5.4
							c0,0.4,0,1.4-0.4,1.7c0,0,8.7-5.4,10.6-5.9c-2.2,0.7-4.2-0.5-6-1.9c-0.7-0.5-1.3-1-2-1.5c-0.4-0.3-0.7-0.6-1.1-0.9
							C97.8,232.5,97.5,232.2,97.2,232z"/>
					</g>
					<g>
						<path class="st26" d="M102.1,301.2c0-4.1,3.3-7.5,7.5-7.5c4.1,0,7.4,3.3,7.4,7.5c0,4.1-3.3,7.5-7.4,7.5
							C105.4,308.7,102.1,305.4,102.1,301.2z"/>
					</g>
					<g>
						<path class="st22" d="M105.1,283.2c-0.6,2.2,1.8,4.7,5.4,5.7c3.6,1,6.9,0,7.5-2.2c0.6-2.2-1.8-4.7-5.4-5.7
							C109,280,105.6,281.1,105.1,283.2z"/>
					</g>
					<g>
						<path class="st22" d="M151.6,355.2c-23.7,0-27.6,14.4-27.6,14.4c6.1,3.4,27.6,3.1,27.6,3.1s21.6,0.3,27.7-3.1
							C179.2,369.6,175.3,355.2,151.6,355.2z"/>
					</g>
					<g>
						<path class="st22" d="M84.3,320.7c1.8-5.4,9.9-7.9,9.9-7.9c13.4-3.6,17.7,18,17.7,18c25,16.5,32.1,7.2,35.2,7.3
							c-0.1,7.6-7.7,16.1-29.5,23.2c0,0-10.6,2.9-18.3-3.9c-0.5-0.4-1.2-1-1.9-1.6C94.6,353.7,86.2,345.3,84.3,320.7z"/>
					</g>
					<g>
						<path class="st22" d="M220,320.7c-1.8-5.4-9.9-7.9-9.9-7.9c-13.4-3.6-17.8,18-17.8,18c-25.1,16.5-32.3,7.2-35.4,7.3
							c0.1,7.6,7.7,16.1,29.7,23.2c0,0,10.6,2.9,18.4-3.9c0.5-0.4,1.2-1,1.9-1.6C209.6,353.7,218.1,345.3,220,320.7z"/>
					</g>
					<g>
						<path class="st27" d="M74.3,276.8c-0.3-2-0.5-4.1-0.6-6.2c-11.9,6.5-58.5,34.3,0.2,38.5C74,309,73.4,288.3,74.3,276.8z"/>
						<path class="st28" d="M77.7,312.9l-3.9-0.3c-20.2-1.4-30.4-5.7-32.1-13.5c-2.4-11,15.2-23.3,30.4-31.7l5.1-2.8l0.2,5.8
							c0.1,2,0.2,3.9,0.5,5.8l0.1,0.4l0,0.4c-1,11.2-0.4,31.6-0.4,31.9L77.7,312.9z M70.7,276.4c-14.1,8.4-23,16.8-22.1,21.2
							c0.3,1.4,2.8,5.7,21.7,7.6c-0.1-6.5-0.3-19.6,0.4-28.3C70.7,276.7,70.7,276.6,70.7,276.4z"/>
					</g>
				</g>
				<path class="st23" d="M169.4,258.7c0,2.2-1.5,4-3.3,4h-29c-1.9,0-3.3-1.8-3.3-4l0,0c0-2.2,1.5-4,3.3-4h29
					C167.9,254.7,169.4,256.5,169.4,258.7L169.4,258.7z"/>
			</g>
		</g>
		<g class="st1">
			<g>
				<g>
					<path class="st26" d="M226.1,221.1c-1.9-7.7-5.7-14.6-14.4-15.4c-8.7-0.8-17.1,3.4-23.7,8.6c-3.9,3.1-8,6.1-12.2,8.8
						c-14.4,9.4-24.2,8.1-24.2,8.1s-9.3,1.3-23.8-8.1c-4.2-2.7-7.9-5.7-11.8-8.8c-6.6-5.2-15-9.4-23.7-8.6
						c-8.6,0.8-12.5,7.7-14.4,15.4c0,0-4.6,12.6-3.9,70.5c0,0-0.2,43.7,4.7,54.6c0,0,11.2,39.7,72.8,39.9
						c61.6-0.2,73.2-39.9,73.2-39.9c4.9-10.9,5-54.6,5-54.6C230.6,233.7,226.1,221.1,226.1,221.1z"/>
				</g>
				<g>
					<path class="st25" d="M186,233c0,0,18.9,6.5,31.4,19.5c0,0,1.3,1.1,2.4,1.2c-0.5-7.3,0.5-14.7-0.1-22c-0.2-2.4-0.3-4.8-0.9-7.1
						c-0.5-2-1.5-4.6-3.4-5.8c-3.3-2.1-8.6-0.2-11.8,1.4c-5.9,2.9-10.3,7.4-15.4,11.3C187.9,231.9,186.5,233.2,186,233z"/>
				</g>
				<g>
					<path class="st22" d="M211.3,227.5c-8.6-4.4-20.1,7.4-20.3,7.6c6.3,2.8,17.3,8.4,25.7,16.8c0-0.7,0.3-2.3,0.3-2.6
						c0.1-1.1,0.1-2.1,0.1-3.2C217.2,239.9,217.7,230.8,211.3,227.5z"/>
				</g>
				<g>
					<path class="st25" d="M219.9,302.2c0,0,0.8-37.9-26.3-51.9c0,0-17.7-10.1-41.5-9.5c-23.8-0.7-41.5,9.5-41.5,9.5
						c-27.1,14-26.3,51.9-26.3,51.9c-2.6,46.9,14.1,55.7,14.1,55.7c7.8,8,19.4,4.9,19.4,4.9c22.1-7.3,29.5-15.8,29.5-23.5
						c0-8.9-9.7-10.1-14.4-14.1c-4.8-4-4.4-10.6-4.4-10.6s0.2-0.7,1.6-1.5c2.1-1.5,7.6-3.4,22-3.4c0.1,0,0.2,0,0.3,0
						c0.1,0,0.2,0,0.3,0v0c22.2,0.1,23.6,5,23.6,5s0.4,6.6-4.4,10.6c-4.7,4-14.7,5.3-14.7,15.2l-0.1,0c0.6,7.4,8.4,15.5,29.5,22.4
						c0,0,11.6,3.2,19.4-4.9C205.8,357.9,222.5,349,219.9,302.2z"/>
				</g>
				<g>
					<path class="st26" d="M206.8,233.4c0.3-0.2,0.5-0.3,0.9-0.3c1.4,0.2,0.2,3.3,0,4.1c-0.4,1.8-0.7,3.6-0.7,5.4
						c0,0.5,0,1.4,0.4,1.7c0,0-8.7-5.4-10.6-5.9c2.3,0.6,4.2-0.5,6-1.9c0.7-0.5,1.3-1,2-1.5c0.4-0.3,0.7-0.6,1.1-0.9
						C206.2,233.9,206.5,233.6,206.8,233.4z"/>
				</g>
				<path class="st29" d="M193.5,250.3c0,0-17.7-10.1-41.5-9.5c-23.8-0.7-41.5,9.5-41.5,9.5c-12.1,6.2-18.6,17.2-22.2,27.4h127.3
					C212.1,267.5,205.6,256.5,193.5,250.3z"/>
				<g>
					<path class="st26" d="M201.9,302.7c0-4.1-3.3-7.5-7.5-7.5c-4.1,0-7.5,3.3-7.5,7.5c0,4.1,3.3,7.5,7.5,7.5
						C198.6,310.1,201.9,306.8,201.9,302.7z"/>
				</g>
				<g>
					<path class="st22" d="M200.8,284.6c0.6,2.2-1.8,4.7-5.4,5.7c-3.6,1-6.9,0-7.5-2.2c-0.6-2.2,1.8-4.7,5.4-5.7
						C196.8,281.5,200.2,282.5,200.8,284.6z"/>
				</g>
				<g>
					<path class="st25" d="M118.1,233c0,0-18.9,6.5-31.4,19.5c0,0-1.3,1.1-2.4,1.2c0.5-7.3-0.5-14.7,0.1-22c0.2-2.4,0.3-4.8,0.9-7.1
						c0.5-2,1.5-4.6,3.4-5.8c3.3-2.1,8.6-0.2,11.8,1.4c5.9,2.9,10.3,7.4,15.4,11.3C116.2,231.9,117.6,233.2,118.1,233z"/>
				</g>
				<g>
					<path class="st22" d="M92.8,227.5c8.6-4.4,20.1,7.4,20.3,7.6c-6.3,2.8-17.3,8.4-25.7,16.8c0.1-0.7-0.3-2.3-0.3-2.6
						c-0.1-1.1-0.1-2.1-0.1-3.2C86.9,239.9,86.4,230.8,92.8,227.5z"/>
				</g>
				<g>
					<path class="st26" d="M97.3,233.4c-0.3-0.2-0.5-0.3-0.9-0.3c-1.4,0.2-0.2,3.3,0,4.1c0.4,1.8,0.7,3.6,0.7,5.4
						c0,0.5,0,1.4-0.4,1.7c0,0,8.7-5.4,10.6-5.9c-2.2,0.6-4.2-0.5-6-1.9c-0.7-0.5-1.3-1-2-1.5c-0.3-0.3-0.7-0.6-1-0.9
						C97.9,233.9,97.6,233.6,97.3,233.4z"/>
				</g>
				<g>
					<path class="st26" d="M102.2,302.7c0-4.1,3.3-7.5,7.5-7.5c4.1,0,7.4,3.3,7.4,7.5c0,4.1-3.3,7.5-7.4,7.5
						C105.5,310.1,102.2,306.8,102.2,302.7z"/>
				</g>
				<g>
					<path class="st22" d="M105.1,284.6c-0.6,2.2,1.8,4.7,5.4,5.7c3.6,1,6.9,0,7.5-2.2c0.6-2.2-1.8-4.7-5.4-5.7
						C109.1,281.5,105.7,282.5,105.1,284.6z"/>
				</g>
				<g>
					<path class="st22" d="M151.7,356.6C128,356.6,124,371,124,371c6.1,3.4,27.6,3.1,27.6,3.1s21.6,0.3,27.7-3.1
						C179.3,371,175.4,356.6,151.7,356.6z"/>
				</g>
				<g>
					<path class="st22" d="M84.3,322.2c1.8-5.4,9.9-7.9,9.9-7.9c13.4-3.6,17.7,18,17.7,18c25,16.5,32.1,7.2,35.2,7.3
						c-0.1,7.6-7.7,16.1-29.5,23.2c0,0-10.6,2.9-18.3-3.9c-0.5-0.4-1.2-1-1.9-1.6C94.6,355.1,86.2,346.7,84.3,322.2z"/>
				</g>
				<g>
					<path class="st22" d="M220.1,322.2c-1.8-5.4-9.9-7.9-9.9-7.9c-13.4-3.6-17.8,18-17.8,18c-25.1,16.5-32.3,7.2-35.4,7.3
						c0.1,7.6,7.8,16.1,29.7,23.2c0,0,10.6,2.9,18.4-3.9c0.5-0.4,1.2-1,1.9-1.6C209.7,355.1,218.2,346.7,220.1,322.2z"/>
				</g>
				<g>
					<path class="st29" d="M74.4,278.2c-0.3-2-0.5-4.1-0.6-6.2c-11.9,6.5-58.5,34.3,0.2,38.5C74,310.4,73.4,289.7,74.4,278.2z"/>
					<path class="st26" d="M77.7,314.3l-3.9-0.3c-20.2-1.4-30.4-5.7-32.1-13.5c-2.4-11.1,15.2-23.3,30.4-31.7l5.1-2.8l0.2,5.8
						c0.1,2,0.3,3.9,0.5,5.8L78,278l0,0.4c-1,11.2-0.4,31.6-0.4,31.9L77.7,314.3z M70.8,277.8c-14.1,8.4-23,16.8-22.1,21.2
						c0.3,1.4,2.8,5.7,21.7,7.6c-0.1-6.5-0.3-19.6,0.4-28.3C70.8,278.1,70.8,278,70.8,277.8z"/>
				</g>
			</g>
			<path class="st25" d="M169.5,260.1c0,2.2-1.5,4-3.3,4h-29c-1.8,0-3.3-1.8-3.3-4l0,0c0-2.2,1.5-4,3.3-4h29
				C168,256.1,169.5,257.9,169.5,260.1L169.5,260.1z"/>
		</g>
	</g>
	<g class="st0">
		<g class="st1">
			<rect x="437.8" y="316.2" class="st30" width="24.4" height="49.9"/>
			<polygon class="st30" points="579.3,300.8 564.8,324.9 546.9,292.8 568.2,280.9 			"/>
			<path class="st30" d="M479.2,231.1c9.4-8.2,15.3-20.2,15.3-33.6c0-21.4-15.2-39.4-35.4-43.6v-13.4h-18.2v13.4
				c-20.2,4.2-35.4,22.2-35.4,43.6c0,13.4,5.9,25.4,15.3,33.6l-84.9,207.2l6.6,23l22.6-10.6L450,243.5l84.9,207.2l22.6,10.6l6.6-23
				L479.2,231.1z M450,173.7c13.2,0,23.9,10.7,23.9,23.9c0,13.2-10.7,23.9-23.9,23.9c-13.2,0-23.9-10.7-23.9-23.9
				C426.1,184.4,436.8,173.7,450,173.7"/>
			<path class="st30" d="M450,433.2c-109.6,0-198.8-89.2-198.8-198.8c0-109.6,89.2-198.8,198.8-198.8
				c109.6,0,198.8,89.2,198.8,198.8C648.8,344,559.6,433.2,450,433.2 M450,62.8c-94.6,0-171.6,77-171.6,171.6
				c0,94.6,77,171.6,171.6,171.6c94.6,0,171.6-77,171.6-171.6C621.6,139.8,544.6,62.8,450,62.8"/>
			<path class="st30" d="M357.8,282.7c-4.7-6.2-8.8-12.9-12.2-20h-27.7c6.5,17.2,16.3,32.8,28.5,46.1L357.8,282.7z"/>
			<g>
				<path class="st30" d="M376.5,149.1l-2.2-3.4l1.3-1c0.7-0.6,1-1.1,0.4-2l-12.8-19.4l-2.5,1.4l-2.3-3.5l19.1-12.6l4.6,6.9
					l-4.1,3.1l-1.1-1.7c-0.5-0.8-0.9-1.2-2.1-0.5l-6.2,4.1l4.7,7.1l9.6-6.4l2.8,4.3l-9.6,6.3l5.1,7.8l6.7-4.4
					c1.1-0.7,0.8-1.3,0.3-2.1l-1.4-2.1l4.4-2.5l4.9,7.4L376.5,149.1z"/>
			</g>
			<g>
				<path class="st30" d="M408.4,121.2c-1.2-2.9-4.1-2.7-7.7-2.3c-5.1,0.6-10.1,0.4-12.5-5.5c-2.3-5.7,0.7-10.8,7.1-13.4
					c3.1-1.2,6.2-1.8,9.5-1.6l2.8,7l-4.6,2.2l-1.1-2.7c-0.4-0.9-0.6-1.2-1.6-1.1c-1,0.1-2.2,0.5-3.2,0.8c-2.7,1.1-4.4,3.1-3.3,5.9
					c1.2,2.9,4.2,2.6,8.1,2.3c4.8-0.3,10-0.2,12.4,5.7c2.5,6.1-1,11.4-7.4,13.9c-3.7,1.5-6.8,2-10.1,1.9l-2.9-7.3l4.6-2.2l1.1,2.8
					c0.4,0.9,0.6,1.2,1.6,1.1c1-0.1,2.3-0.4,3.5-0.9C407.7,126.6,409.8,124.7,408.4,121.2z"/>
			</g>
			<g>
				<path class="st30" d="M421.8,97.9l-3.8,0.7c-1,0.2-1,0.9-0.9,1.7l0.4,2.3l-5.1,0.6l-1.5-8.3l25.7-4.7l1.5,8.4l-5,1.3l-0.4-2.3
					c-0.2-0.9-0.4-1.5-1.7-1.3l-3.3,0.6l4.3,23.5l3.9-0.6l0.8,4.2l-13.9,2.5l-0.7-4l2.6-0.6c0.9-0.3,1.4-0.7,1.2-1.6L421.8,97.9z"/>
			</g>
			<g>
				<path class="st30" d="M443.2,117.1c2.4-0.1,3.8,1.2,4,3.3c0.1,2-1.1,3.7-3.3,3.8c-2.5,0.1-3.8-1.2-4-3.3
					C439.7,118.9,441,117.3,443.2,117.1z"/>
			</g>
			<g>
				<path class="st30" d="M459.3,119.4l11.7-10.9c2.8-2.6,4.1-3.7,4.5-6.5c0.4-2.9-1.2-4.5-3.5-4.9c-1.4-0.2-2.2-0.2-3-0.1
					c-0.9,0.2-1.1,0.6-1.3,1.6l-0.5,3.5l-5-1.1l1.2-7.9c2.8-0.9,6.6-1.4,10.3-0.8c6.1,0.9,8.8,5,8,10.2c-0.5,3.3-2.5,6-5.6,8.7
					l-9.4,8.2l12.3,1.9l-0.7,4.9l-19.7-3L459.3,119.4z"/>
			</g>
			<g>
				<path class="st30" d="M507.1,118.8c-4,11.1-9.6,14.5-16.7,11.9c-7.2-2.6-9.1-8.7-5.1-19.6c3.9-10.8,10.1-14,16.8-11.6
					C508.6,101.9,511.1,107.8,507.1,118.8z M501.4,116.9c3.1-8.5,1.9-11.7-1.2-12.8c-3.3-1.2-6.3,0.8-9.5,9.6
					c-2.9,8.1-1.8,11.4,1.3,12.5C495.1,127.4,498.2,125.8,501.4,116.9z"/>
			</g>
			<g>
				<path class="st30" d="M522.2,116.8l-6.6-0.4l0.1-4.4l10.7-0.2l4.2,2.5l-14.1,23.8l4.3,2.9l-2.2,3.7l-14.9-8.8l2.1-3.5l4.3,2.2
					c0.8,0.4,1.4,0.4,2.1-0.7L522.2,116.8z"/>
			</g>
			<g>
				<path class="st30" d="M539.9,138.2c2,0.3,4.1-0.1,5.8-2.1c1.6-1.8,1.4-3.8-0.7-5.8c-1.1-0.9-1.9-1.4-2.7-1.7
					c-0.9-0.4-1.3-0.1-1.9,0.7l-2.4,2.7l-3.6-3.6l5.3-6c2.8,0.7,6.3,2.2,9.3,4.8c4.8,4.2,4.8,8.8,1.9,12.2c-2.4,2.7-5.7,3.6-8.8,3.1
					c2.2,3.7,0.9,6.7-0.9,8.7c-3.8,4.4-9.4,5.4-15.2,0.3c-2.9-2.6-5.1-6.1-5.7-8.3l4.4-2.4c0.8,2.3,2.6,5.2,4.5,6.8
					c2.4,2.1,5,2.6,7.3-0.1c2.1-2.4,1.8-4.9-2.3-8.4l-1.4-1.2l3.3-3.1L539.9,138.2z"/>
			</g>
			<path class="st30" d="M554.4,262.7c-18.6,39-58.4,66-104.4,66c-19.4,0-37.7-4.8-53.7-13.3v0c-6.7-3.5-13.1-7.7-19-12.6L366.8,327
				c2.2,1.6,4.4,3.1,6.6,4.6l0,0c22.1,14.3,48.3,22.6,76.5,22.6c60.4,0,112-38.1,132.1-91.5H554.4z"/>
		</g>
		<g class="st1">
			<path class="st31" d="M306.1,502.5c-1.7-2.9-6.5-5.7-12-5.7c-7.1,0-10.5,3-10.5,6.7c0,4.4,5.2,5.7,11.3,6.4
				c10.6,1.3,20.5,4.1,20.5,16.2c0,11.3-10,16.2-21.3,16.2c-10.4,0-18.3-3.2-22.1-12.5l8-4.1c2.2,5.6,8.1,8.1,14.3,8.1
				c6,0,11.7-2.1,11.7-7.6c0-4.8-5-6.7-11.8-7.5c-10.4-1.2-19.9-4-19.9-15.4c0-10.4,10.3-14.7,19.7-14.8c7.9,0,16.1,2.2,19.9,10.1
				L306.1,502.5z"/>
			<path class="st31" d="M346.7,526.1h-14.4V541h-9.6v-50.8c8,0,16-0.1,23.9-0.1C371.5,490.2,371.6,526.1,346.7,526.1z M332.3,517.3
				h14.4c12.3,0,12.2-18,0-18h-14.4V517.3z"/>
			<path class="st31" d="M416.8,541h-11.4l-14.8-17h-9.2v17h-9.6v-50.8c8.1,0,16.1,0.1,24.2,0.1c12,0.1,18.3,8.1,18.3,16.8
				c0,7-3.2,14-12.8,16l15.4,17.3V541z M381.4,499.2v16.2H396c6.1,0,8.7-4.1,8.7-8.1c0-4.1-2.7-8.1-8.7-8.1H381.4z"/>
			<path class="st31" d="M420.8,541v-50.8h9.5V541H420.8z"/>
			<path class="st31" d="M472.7,490.2h9.6V541h-5.9v0.1l-26.7-34.3V541H440v-50.8h7.8l24.9,31.5V490.2z"/>
			<path class="st31" d="M504.2,498.9H488v-8.7c14.7,0,27.1,0,41.8,0v8.7h-16.1V541h-9.6V498.9z"/>
			<path class="st31" d="M546.3,518.9v-7.8h7.3c5.1,0,10.6-1.4,10.7-6.1c0-2.9-2.3-6.7-10.4-6.7c-4.5,0-10.6,1.6-10.6,6.2h-9.6
				c0-11,10.9-14.9,20.2-14.9c9.6,0,19.9,4.6,19.9,15.5c0,4-2.6,8.6-7,10c4.9,1.6,8.3,6.4,8.3,10.7c0,12.4-11.7,16.1-21.5,16.1
				c-9.6,0-20.7-4.1-20.7-15.6h9.7c0,5.2,7,7,11.2,7c4.9,0,11.3-2,11.3-7.5c0-3-1.7-6.8-10.8-6.8H546.3z"/>
			<path class="st31" d="M628.1,541h-11.4l-14.8-17h-9.2v17h-9.6v-50.8c8.1,0,16.1,0.1,24.2,0.1c12,0.1,18.3,8.1,18.3,16.8
				c0,7-3.2,14-12.8,16l15.4,17.3V541z M592.7,499.2v16.2h14.6c6.1,0,8.7-4.1,8.7-8.1c0-4.1-2.7-8.1-8.7-8.1H592.7z"/>
		</g>
	</g>
</g>
<g id="Layer_2">
</g>
</svg>
