<?xml version="1.0" encoding="utf-8"?>
<!-- Generator: Adobe Illustrator 19.1.0, SVG Export Plug-In . SVG Version: 6.00 Build 0)  -->
<svg version="1.1" id="Layer_1" xmlns="http://www.w3.org/2000/svg" xmlns:xlink="http://www.w3.org/1999/xlink" x="0px" y="0px"
	 viewBox="0 0 900 600" style="enable-background:new 0 0 900 600;" xml:space="preserve">
<style type="text/css">
	.st0{fill:#CD3928;}
	.st1{fill:#282827;}
</style>
<g>
	<g>
		<rect x="437.8" y="325.6" class="st0" width="23.5" height="48"/>
		<polygon class="st0" points="574,310.9 560.1,334.1 542.8,303.1 563.3,291.7 		"/>
		<path class="st0" d="M477.7,243.8c9-7.9,14.8-19.4,14.8-32.3c0-20.6-14.7-37.9-34.1-42v-12.9h-17.5v12.9
			c-19.5,4.1-34.1,21.3-34.1,42c0,12.9,5.7,24.4,14.7,32.3l-81.7,199.4l6.4,22.1l21.7-10.2l81.7-199.4l81.7,199.4l21.7,10.2
			l6.4-22.1L477.7,243.8z M449.5,188.5c12.7,0,23,10.3,23,23c0,12.7-10.3,23-23,23c-12.7,0-23-10.3-23-23
			C426.6,198.8,436.9,188.5,449.5,188.5"/>
		<path class="st0" d="M449.5,438.3c-105.5,0-191.3-85.8-191.3-191.3c0-105.5,85.8-191.3,191.3-191.3
			c105.5,0,191.3,85.8,191.3,191.3C640.9,352.4,555,438.3,449.5,438.3 M449.5,81.8c-91.1,0-165.2,74.1-165.2,165.2
			c0,91.1,74.1,165.2,165.2,165.2c91.1,0,165.2-74.1,165.2-165.2C614.7,155.9,540.6,81.8,449.5,81.8"/>
		<path class="st0" d="M360.8,293.4c-4.5-6-8.5-12.4-11.7-19.3h-26.7c6.2,16.6,15.6,31.6,27.5,44.4L360.8,293.4z"/>
		<g>
			<path class="st0" d="M378.8,164.8l-2.1-3.2l1.2-1c0.6-0.5,1-1.1,0.4-1.9L366,140.1l-2.4,1.4l-2.2-3.4l18.4-12.1l4.4,6.7l-3.9,3
				l-1.1-1.6c-0.5-0.8-0.9-1.2-2-0.5l-5.9,3.9l4.5,6.9l9.3-6.1l2.7,4.1l-9.3,6.1l4.9,7.5l6.5-4.3c1-0.7,0.8-1.2,0.3-2l-1.3-2
				l4.3-2.4l4.7,7.1L378.8,164.8z"/>
		</g>
		<g>
			<path class="st0" d="M409.5,138c-1.1-2.8-4-2.6-7.4-2.2c-4.9,0.6-9.7,0.4-12-5.3c-2.2-5.4,0.7-10.4,6.8-12.9
				c2.9-1.2,5.9-1.7,9.1-1.5l2.7,6.7l-4.4,2.1l-1-2.6c-0.3-0.8-0.6-1.2-1.5-1.1c-1,0.1-2.2,0.4-3,0.8c-2.6,1.1-4.3,2.9-3.1,5.7
				c1.1,2.8,4,2.5,7.8,2.2c4.6-0.3,9.6-0.2,11.9,5.5c2.4,5.9-1,11-7.1,13.4c-3.6,1.4-6.6,2-9.7,1.8l-2.8-7l4.4-2.1l1.1,2.7
				c0.3,0.8,0.6,1.1,1.5,1.1c1-0.1,2.2-0.4,3.4-0.9C408.8,143.2,410.9,141.3,409.5,138z"/>
		</g>
		<g>
			<path class="st0" d="M422.4,115.6l-3.7,0.7c-1,0.2-1,0.9-0.8,1.7l0.4,2.2l-4.9,0.5l-1.5-8l24.7-4.5l1.5,8l-4.8,1.2l-0.4-2.2
				c-0.2-0.9-0.4-1.4-1.6-1.2l-3.2,0.6l4.1,22.6l3.8-0.5l0.7,4l-13.3,2.4l-0.7-3.8l2.5-0.6c0.9-0.3,1.3-0.6,1.1-1.6L422.4,115.6z"/>
		</g>
		<g>
			<path class="st0" d="M443,134.1c2.3-0.1,3.7,1.2,3.8,3.2c0.1,1.9-1,3.5-3.2,3.7c-2.4,0.1-3.7-1.2-3.8-3.2
				C439.6,135.8,440.8,134.2,443,134.1z"/>
		</g>
		<g>
			<path class="st0" d="M458.5,136.2l11.3-10.5c2.7-2.5,3.9-3.6,4.4-6.3c0.4-2.8-1.1-4.4-3.4-4.7c-1.3-0.2-2.2-0.2-2.9-0.1
				c-0.9,0.2-1.1,0.6-1.2,1.5l-0.5,3.4l-4.8-1.1l1.2-7.6c2.7-0.9,6.3-1.3,9.9-0.8c5.8,0.9,8.5,4.8,7.7,9.8c-0.5,3.1-2.4,5.8-5.4,8.4
				l-9,7.9l11.9,1.8l-0.7,4.7l-18.9-2.9L458.5,136.2z"/>
		</g>
		<g>
			<path class="st0" d="M504.5,135.7c-3.9,10.7-9.2,13.9-16.1,11.4c-6.9-2.5-8.7-8.3-4.9-18.9c3.8-10.4,9.7-13.5,16.2-11.2
				C505.9,119.4,508.3,125.1,504.5,135.7z M499.1,133.9c3-8.2,1.8-11.3-1.2-12.3c-3.2-1.2-6,0.7-9.1,9.3c-2.8,7.8-1.8,11,1.3,12.1
				C493,143.9,495.9,142.4,499.1,133.9z"/>
		</g>
		<g>
			<path class="st0" d="M519.1,133.8l-6.3-0.4l0.1-4.3l10.3-0.2l4,2.4l-13.6,22.9l4.2,2.8l-2.1,3.5l-14.4-8.5l2-3.4l4.1,2.1
				c0.8,0.4,1.4,0.4,2-0.7L519.1,133.8z"/>
		</g>
		<g>
			<path class="st0" d="M536.1,154.4c2,0.3,3.9-0.1,5.5-2c1.5-1.8,1.4-3.7-0.7-5.5c-1-0.9-1.9-1.3-2.6-1.6c-0.8-0.4-1.2-0.1-1.8,0.6
				l-2.3,2.6l-3.5-3.5l5.1-5.8c2.7,0.7,6.1,2.1,9,4.6c4.6,4,4.7,8.5,1.8,11.8c-2.3,2.6-5.5,3.5-8.4,3c2.1,3.5,0.8,6.4-0.8,8.3
				c-3.7,4.2-9,5.2-14.7,0.3c-2.8-2.5-4.9-5.9-5.5-8l4.3-2.3c0.8,2.2,2.5,5,4.3,6.6c2.3,2,4.8,2.5,7-0.1c2-2.3,1.7-4.7-2.2-8.1
				l-1.4-1.2l3.2-3L536.1,154.4z"/>
		</g>
		<path class="st0" d="M550,274.2c-17.9,37.5-56.2,63.5-100.5,63.5c-18.7,0-36.2-4.6-51.7-12.8v0c-6.5-3.4-12.6-7.4-18.3-12.1
			l-10,23.2c2.1,1.5,4.2,3,6.4,4.4l0,0c21.2,13.8,46.5,21.8,73.7,21.8c58.1,0,107.8-36.7,127.2-88.1H550z"/>
	</g>
	<g>
		<path class="st1" d="M311.1,505c-1.7-2.8-6.3-5.4-11.6-5.4c-6.8,0-10.1,2.9-10.1,6.5c0,4.3,5,5.4,10.9,6.1
			c10.2,1.3,19.7,3.9,19.7,15.6c0,10.9-9.6,15.6-20.5,15.6c-10,0-17.7-3.1-21.3-12l7.7-4c2.2,5.4,7.8,7.7,13.8,7.7
			c5.8,0,11.2-2,11.2-7.3c0-4.6-4.8-6.5-11.3-7.2c-10-1.2-19.2-3.8-19.2-14.8c0-10.1,9.9-14.2,18.9-14.2c7.6,0,15.5,2.2,19.2,9.7
			L311.1,505z"/>
		<path class="st1" d="M350.1,527.7h-13.8v14.4h-9.2v-48.9c7.7,0,15.4-0.1,23-0.1C374,493.1,374,527.7,350.1,527.7z M336.3,519.2
			h13.8c11.8,0,11.7-17.3,0-17.3h-13.8V519.2z"/>
		<path class="st1" d="M417.6,542.1h-11l-14.2-16.3h-8.9v16.3h-9.2v-48.9c7.8,0,15.5,0.1,23.2,0.1c11.5,0.1,17.6,7.7,17.6,16.2
			c0,6.7-3.1,13.5-12.4,15.4l14.8,16.7V542.1z M383.5,501.8v15.6h14c5.9,0,8.4-3.9,8.4-7.8c0-3.9-2.6-7.8-8.4-7.8H383.5z"/>
		<path class="st1" d="M421.4,542.1v-48.9h9.1v48.9H421.4z"/>
		<path class="st1" d="M471.4,493.1h9.2v48.9h-5.7v0.1l-25.7-33v33h-9.2v-48.9h7.5l24,30.3V493.1z"/>
		<path class="st1" d="M501.7,501.6h-15.5v-8.4c14.1,0,26,0,40.2,0v8.4h-15.5v40.5h-9.2V501.6z"/>
		<path class="st1" d="M542.2,520.8v-7.5h7.1c5,0,10.2-1.3,10.3-5.9c0-2.8-2.2-6.5-10.1-6.5c-4.3,0-10.2,1.5-10.2,6h-9.2
			c0-10.5,10.5-14.4,19.5-14.4c9.2,0,19.1,4.5,19.2,14.9c0,3.8-2.5,8.3-6.8,9.6c4.7,1.5,8,6.1,8,10.3c0,11.9-11.2,15.5-20.7,15.5
			c-9.3,0-19.9-3.9-20-15h9.3c0,5,6.8,6.8,10.8,6.8c4.7,0,10.9-2,10.9-7.2c0-2.9-1.6-6.6-10.4-6.6H542.2z"/>
		<path class="st1" d="M621,542.1h-11l-14.2-16.3h-8.9v16.3h-9.2v-48.9c7.7,0,15.5,0.1,23.2,0.1c11.5,0.1,17.6,7.7,17.6,16.2
			c0,6.7-3.1,13.5-12.4,15.4l14.8,16.7V542.1z M586.9,501.8v15.6h14c5.9,0,8.4-3.9,8.4-7.8c0-3.9-2.6-7.8-8.4-7.8H586.9z"/>
	</g>
</g>
</svg>
