<?xml version="1.0" encoding="utf-8"?>
<!-- Generator: Adobe Illustrator 19.1.0, SVG Export Plug-In . SVG Version: 6.00 Build 0)  -->
<svg version="1.1" id="Layer_1" xmlns="http://www.w3.org/2000/svg" xmlns:xlink="http://www.w3.org/1999/xlink" x="0px" y="0px"
	 viewBox="0 0 900 600" style="enable-background:new 0 0 900 600;" xml:space="preserve">
<style type="text/css">
	.st0{fill:#008D95;}
	.st1{fill:#05747C;}
	.st2{fill:#FFFFFF;}
</style>
<g>
	<g>
		<g>
			<path class="st0" d="M242.8,409.3l0.1-219.3c0-8.2,4.3-15.7,11.2-19.8L439.3,60.7c6.9-4.1,15.4-4.1,22.3,0l185.2,109.8
				c6.9,4.1,11.2,11.7,11.2,19.8l-0.1,219.3c0,8.2-4.3,15.7-11.2,19.8L461.4,539c-6.9,4.1-15.4,4.1-22.3,0L253.9,429.2
				C247,425.1,242.8,417.5,242.8,409.3z"/>
		</g>
		<path class="st1" d="M657.8,187.6c-0.6-5.1-2.8-9.9-6.3-13.5L249.2,425.4c1.4,1.5,3,2.7,4.8,3.8l185.2,109.8
			c6.9,4.1,15.4,4.1,22.3,0l185.3-109.6c6.7-3.9,10.8-11.1,11.1-19V187.6z"/>
	</g>
	<g>
		<path class="st2" d="M363.9,333.5c9.5,0,17.3-7.8,17.3-17.4v-34.4c0-9.6-7.8-17.4-17.3-17.4c-9.5,0-17.3,7.8-17.3,17.4v34.4
			C346.6,325.7,354.3,333.5,363.9,333.5z"/>
		<path class="st2" d="M502.3,281.6c9.5,0,17.3-7.8,17.3-17.4v-34.4c0-9.6-7.8-17.4-17.3-17.4c-9.5,0-17.3,7.8-17.3,17.4v34.4
			C485,273.8,492.8,281.6,502.3,281.6z"/>
		<path class="st2" d="M554.3,212.4c0-9.5,7.7-17.2,17.2-17.2c9.5,0,17.2,7.7,17.2,17.2v87.9c0,4.9,0.4,22-11.6,35.4
			c-6.2,6.9-17.9,15.2-38.3,15.2h-73.3c-20.4,0-32.1-8.2-38.3-15.2c-12-13.4-11.6-30.6-11.6-35.4v-49.8c0-7.1-1.6-12.1-4.9-15.4
			c-4.7-4.7-12.8-5.6-15.5-5.5c-0.2,0-0.2,0-0.5,0h-65.7c-9.5,0-17.2-7.7-17.2-17.2c0-9.5,7.7-17.2,17.2-17.2h65.4
			c3.9-0.1,24.6,0.2,40,15.1c7.1,6.8,15.6,19.4,15.6,40.3v52.3c0,1.5,0.1,6.9,2.9,9.9c2.8,3,8.3,3.6,12.5,3.6h73.3
			c4.2,0,9.8-0.6,12.5-3.6c2.8-3,2.9-8.5,2.9-10.2V212.4z"/>
	</g>
	<g>
		<path class="st2" d="M593.9,385.8V381h-1.7v-0.6h4.1v0.6h-1.7v4.8H593.9z"/>
		<path class="st2" d="M601.8,385.8v-4.5l-1.8,4.5h-0.3l-1.8-4.5v4.5h-0.7v-5.4h1l1.7,4.1l1.7-4.1h1v5.4H601.8z"/>
	</g>
	<g>
		<path class="st2" d="M327.7,380.8H312c-0.5,0-0.9,0.4-0.9,0.9v2.3c0,0.5,0.4,0.9,0.9,0.9h5.7v17.6c0,0.5,0.4,0.9,0.9,0.9h2.6
			c0.5,0,0.9-0.4,0.9-0.9v-17.6h5.7c0.5,0,0.9-0.4,0.9-0.9v-2.3C328.6,381.1,328.2,380.8,327.7,380.8z"/>
		<path class="st2" d="M351.7,381.3c-0.1-0.3-0.4-0.5-0.8-0.5h-3.2c-0.4,0-0.7,0.2-0.8,0.5l-8.3,20.7c-0.1,0.3-0.1,0.6,0.1,0.8
			c0.2,0.2,0.4,0.4,0.7,0.4h3c0.4,0,0.7-0.2,0.8-0.5l1.6-4.1h9.2l1.6,4.1c0.1,0.3,0.4,0.5,0.8,0.5h3c0,0,0,0,0,0
			c0.5,0,0.9-0.4,0.9-0.9c0-0.2-0.1-0.4-0.2-0.6L351.7,381.3z M346.2,394.6l3.1-7.9l3.1,7.9H346.2z"/>
		<path class="st2" d="M381.3,389.5c-2.7-0.7-4.3-1.3-4.3-2.6c0-1.5,1.4-2.4,3.4-2.4c2.2,0,4.1,0.8,5.4,2.2c0.2,0.2,0.4,0.2,0.7,0.3
			c0.3,0,0.5-0.1,0.6-0.3l1.6-1.9c0.3-0.3,0.3-0.8,0-1.1c-2-2.1-4.7-3.2-8-3.2c-4.6,0-8,2.8-8,6.6c0,4.7,4.2,5.8,7.5,6.7
			c2.9,0.8,4.8,1.4,4.8,3.1c0,1.3-1.1,2.7-4,2.7c-3,0-5-1.7-5.9-2.7c-0.2-0.2-0.4-0.3-0.7-0.3c-0.3,0-0.5,0.1-0.7,0.3l-1.5,2
			c-0.3,0.3-0.2,0.8,0,1.1c1.5,1.6,4.1,3.6,8.6,3.6c6.3,0,8.5-3.6,8.5-7C389.2,391.6,384.6,390.4,381.3,389.5z"/>
		<path class="st2" d="M412.1,391.5l8.2-9.3c0.2-0.3,0.3-0.6,0.1-0.9c-0.1-0.3-0.4-0.5-0.8-0.5h-3.2c-0.3,0-0.5,0.1-0.7,0.3
			l-7.7,8.9v-8.4c0-0.5-0.4-0.9-0.9-0.9h-2.6c-0.5,0-0.9,0.4-0.9,0.9v20.7c0,0.5,0.4,0.9,0.9,0.9h2.6c0.5,0,0.9-0.4,0.9-0.9v-6.6
			l1.2-1.4l7.2,8.6c0.2,0.2,0.4,0.3,0.7,0.3h3.2c0,0,0,0,0,0c0.5,0,0.9-0.4,0.9-0.9c0-0.3-0.2-0.6-0.4-0.7L412.1,391.5z"/>
		<path class="st2" d="M460.3,380.8h-2.9c-0.4,0-0.7,0.3-0.8,0.6l-3.8,14.2l-3.9-14.2c-0.1-0.4-0.4-0.6-0.8-0.6H446
			c-0.4,0-0.7,0.3-0.8,0.6l-3.9,14.2l-3.8-14.2c-0.1-0.4-0.4-0.6-0.8-0.6h-2.9c-0.3,0-0.5,0.1-0.7,0.3c-0.2,0.2-0.2,0.5-0.1,0.8
			l5.9,20.7c0.1,0.4,0.4,0.6,0.8,0.6h2.8c0.4,0,0.7-0.3,0.8-0.6l3.7-13.7l3.7,13.7c0.1,0.4,0.4,0.6,0.8,0.6h2.8
			c0.4,0,0.7-0.3,0.8-0.6l5.9-20.7c0.1-0.3,0-0.5-0.1-0.8C460.9,380.9,460.6,380.8,460.3,380.8z"/>
		<path class="st2" d="M484.5,380.4c-6.5,0-11.2,4.9-11.2,11.6s4.7,11.6,11.2,11.6c6.5,0,11.2-4.9,11.2-11.6S491,380.4,484.5,380.4z
			 M484.5,399.6c-4,0-6.8-3-6.8-7.6s2.7-7.6,6.8-7.6s6.8,3,6.8,7.6S488.6,399.6,484.5,399.6z"/>
		<path class="st2" d="M522.2,394.5c2.6-0.7,4.8-2.9,4.8-6.6c0-4.2-3-7.1-7.4-7.1h-8.3c-0.5,0-0.9,0.4-0.9,0.9v20.7
			c0,0.5,0.4,0.9,0.9,0.9h2.6c0.5,0,0.9-0.4,0.9-0.9V395h2.8l5,7.8c0.2,0.2,0.4,0.4,0.7,0.4h3c0,0,0,0,0,0c0.5,0,0.9-0.4,0.9-0.9
			c0-0.3-0.1-0.5-0.3-0.7L522.2,394.5z M522.6,387.9c0,1.9-1.3,3.1-3.3,3.1h-4.6v-6.2h4.6C521.3,384.8,522.6,386,522.6,387.9z"/>
		<path class="st2" d="M554.9,399.2h-8.8v-17.6c0-0.5-0.4-0.9-0.9-0.9h-2.6c-0.5,0-0.9,0.4-0.9,0.9v20.7c0,0.5,0.4,0.9,0.9,0.9h12.2
			c0.5,0,0.9-0.4,0.9-0.9v-2.3C555.7,399.6,555.4,399.2,554.9,399.2z"/>
		<path class="st2" d="M578,380.8H571c-0.5,0-0.9,0.4-0.9,0.9v20.7c0,0.5,0.4,0.9,0.9,0.9h7.1c6.8,0,11.5-4.6,11.5-11.2
			C589.6,385.5,584.7,380.8,578,380.8z M585.1,392c0,3.6-2.2,7.2-7.1,7.2h-3.6v-14.4h3.6C582.4,384.8,585.1,387.6,585.1,392z"/>
	</g>
</g>
</svg>
