<?xml version="1.0" encoding="utf-8"?>
<!-- Generator: Adobe Illustrator 19.1.0, SVG Export Plug-In . SVG Version: 6.00 Build 0)  -->
<svg version="1.1" id="Layer_1" xmlns="http://www.w3.org/2000/svg" xmlns:xlink="http://www.w3.org/1999/xlink" x="0px" y="0px"
	 viewBox="0 0 900 600" style="enable-background:new 0 0 900 600;" xml:space="preserve">
<style type="text/css">
	.st0{fill:#4B97D2;}
	.st1{filter:url(#Adobe_OpacityMaskFilter);}
	.st2{fill:#FFFFFF;}
	.st3{mask:url(#SVGID_1_);}
	.st4{fill-rule:evenodd;clip-rule:evenodd;fill:#F4A946;}
	.st5{fill-rule:evenodd;clip-rule:evenodd;fill:none;}
</style>
<g>
	<g>
		<path class="st0" d="M161.3,244.4c-6.5,0-11.5,4.6-11.5,10.5c0,0,0.2,46.8,0.2,46.8c0,17.6-13,31.6-30.5,33.9l-0.2-81.3
			c0-5.6-5.6-11.1-11.3-11.1h-0.1l-0.1,0c-6.7,0.4-10.6,6.1-10.6,11.5c0,0,0.1,62.3,0.2,81.2c-16.5-2.6-29.7-17.3-29.7-34.2v-46.8
			c0-5.8-5.1-10.5-11.3-10.5c-5.6,0-10.5,4.9-10.5,10.5v46.8c0,33.9,24.9,55.8,63.4,55.8c36.7,0,62.4-23,62.4-55.8v-46.8
			C171.6,249.2,166.9,244.4,161.3,244.4z"/>
	</g>
	<path class="st0" d="M391.1,244.4c-15.1,0-29.3,5.7-39.9,16.1c-10.7,10.4-16.5,24.5-16.5,39.6v46.8c0,5.6,4.9,10.5,10.5,10.5
		c6.1,0,10.5-4.4,10.5-10.5c0,0.1,0.8-46.7,0.8-46.7c0-19.5,15.2-34.7,34.6-34.7c19.4,0,34.7,15.2,34.7,34.6V346
		c0,5.7,5.2,10.5,11.3,10.5c5.5,0,10.5-5,10.5-10.5V300C447.6,268.9,422.8,244.4,391.1,244.4z"/>
	<path class="st0" d="M515.5,243c-31.3,0-56.8,25.6-56.8,57c0,31.5,25.5,57.1,56.8,57.1c12.8,0,25.2-4.5,35-12.4
		c-0.9,19-16.2,34.1-35,34.1c-6.1,0-11.3,4.8-11.3,10.5c0,5.8,5.1,10.5,11.3,10.5c31.5,0,57.1-25.5,57.1-56.9V300
		C572.6,268.6,547,243,515.5,243z M515.5,265.2c18.9,0,34.3,14.5,35,33.1v4.4c-0.8,18-16.8,33.1-35,33.1
		c-19.4,0-35.9-16.4-35.9-35.9C479.6,280.8,495.7,265.2,515.5,265.2z"/>
	<path class="st0" d="M640.6,244.4c-15.1,0-29.3,5.7-39.9,16.1c-10.7,10.4-16.5,24.5-16.5,39.6v46.8c0,5.6,4.9,10.5,10.5,10.5
		c6.1,0,10.5-4.4,10.5-10.5c0,0.1,0.8-46.7,0.8-46.7c0-19.5,15.2-34.7,34.6-34.7c19.4,0,34.6,15.2,34.6,34.6V346
		c0,5.7,5.2,10.5,11.3,10.5c5.5,0,10.5-5,10.5-10.5V300C697.1,268.9,672.3,244.4,640.6,244.4z"/>
	<path class="st0" d="M765.5,244.8c-31.3,0-56.8,25-56.8,55.6c0,31.9,25,56.9,56.8,56.9c12.9,0,25.1-4.4,34.9-12.3v2
		c0,6.8,5.6,11.3,10.9,11.3c6.4,0,10.9-4.6,10.9-11.3v-46.6C822.2,269.8,796.8,244.8,765.5,244.8z M765.5,336.5
		c-19.2,0-34.8-16.2-34.8-36.1c0-19.5,15.3-34.8,34.8-34.8c19.2,0,34.9,15.6,34.9,34.8v2.9C799.2,322,784,336.5,765.5,336.5z"/>
	<path class="st0" d="M844.7,243.2c-6.5,0-10.9,4.4-10.9,10.9V347c0,6.1,4.7,10.7,10.9,10.7c4.9,0,10.5-4.6,10.5-10.7v-92.9
		C855.2,247.4,849.8,243.2,844.7,243.2z"/>
	<g>
		<defs>
			<filter id="Adobe_OpacityMaskFilter" filterUnits="userSpaceOnUse" x="183.5" y="230.4" width="139.8" height="139.8">
				
					<feColorMatrix  type="matrix" values="-1 0 0 0 1  0 -1 0 0 1  0 0 -1 0 1  0 0 0 1 0" color-interpolation-filters="sRGB" result="source"/>
				<feFlood  style="flood-color:white;flood-opacity:1" result="back"/>
				<feBlend  in="source" in2="back" mode="normal"/>
			</filter>
		</defs>
		<mask maskUnits="userSpaceOnUse" x="183.5" y="230.4" width="139.8" height="139.8" id="SVGID_1_">
			<g class="st1">
				<g>
					<path class="st2" d="M270.5,327.9c0.1-4.2,4.5-15.5-11.3-28.4c-15.8-12.9-32.6-15.7-39-8.6l-0.7,0.8l-0.6,0.7
						c-6.4,7.1-1.9,23.6,12.6,38c14.5,14.3,25.2,8.7,29.4,8.1c4.2-0.6,6.4,0.1,10.2,3.3c3.8,3.2,18.8,17.8,18.8,17.8l7.5,7.6
						l7.6-5.1c0,0-26.1-20.9-29.7-24.4C271.6,334.5,270.4,332.1,270.5,327.9z"/>
					<path class="st2" d="M300.7,316.8c-2.3-2.6-4.6-5.7-4.5-10.4c0.1-4.7-1-9.6-12.7-19.8c-11.7-10.3-28.8-26-28.8-26
						s-0.7-0.4-0.9-0.2c-0.6,0.6-0.5,0.7,0.9,2.1c1.4,1.4,28.7,29.1,28.7,29.1s2.7,2.4,1.6,3.5c-1.2,1.2-7.2-4.9-12.6-10l-22-20.5
						c0,0-0.6-0.3-1,0.1c-0.4,0.4-0.5,0.6,0.3,1.5c0.8,0.9,29.3,30.8,29.3,30.8s1.1,1.2,0.3,2l-0.1,0.1c-0.8,0.9-2-0.3-2-0.3
						s-30-28.9-30.9-29.7c-0.9-0.8-0.9-0.6-1.3-0.2c-0.4,0.4,0,1.1,0,1.1l20.4,22.1c5.1,5.5,11.1,11.5,9.9,12.6
						c-1.2,1.2-3.5-1.6-3.5-1.6s-27.6-27.5-29-28.9c-1.4-1.4-1.5-1.5-2.1-0.9c-0.3,0.2,0.2,0.9,0.2,0.9s15.6,17.2,25.8,28.9
						c10.2,11.7,15,12.9,19.7,12.7c4.7-0.1,7.9,2.3,10.5,4.6c2.5,2.3,22.8,22.9,22.8,22.9l3.7-5.5
						C323.3,338.1,303,319.4,300.7,316.8z"/>
				</g>
			</g>
		</mask>
		<g class="st3">
			<path class="st4" d="M253.4,230.4c-38.5,0-69.9,31.4-69.9,69.9c0,15.3,4.9,29.5,13.3,41l-8.7,26l26.9-8.6
				c11,7.3,24.3,11.6,38.5,11.6c38.5,0,69.9-31.4,69.9-69.9C323.3,261.8,291.9,230.4,253.4,230.4z"/>
		</g>
		<path class="st5" d="M253.4,230.4c-38.5,0-69.9,31.4-69.9,69.9c0,15.3,4.9,29.5,13.3,41l-8.7,26l26.9-8.6
			c11,7.3,24.3,11.6,38.5,11.6c38.5,0,69.9-31.4,69.9-69.9C323.3,261.8,291.9,230.4,253.4,230.4z"/>
	</g>
</g>
</svg>
